<svg width="15" height="18" viewBox="0 0 15 18" fill="none" xmlns="http://www.w3.org/2000/svg">
<path d="M14 5V13C14 16.2 13.1875 17 9.9375 17H5.0625C1.8125 17 1 16.2 1 13V5C1 1.8 1.8125 1 5.0625 1H9.9375C13.1875 1 14 1.8 14 5Z" stroke="#EC1944" stroke-linecap="round" stroke-linejoin="round"/>
<path d="M9.125 3.7998H5.875" stroke="#EC1944" stroke-linecap="round" stroke-linejoin="round"/>
<path d="M7.5001 14.6802C8.19563 14.6802 8.75947 14.125 8.75947 13.4402C8.75947 12.7554 8.19563 12.2002 7.5001 12.2002C6.80456 12.2002 6.24072 12.7554 6.24072 13.4402C6.24072 14.125 6.80456 14.6802 7.5001 14.6802Z" stroke="#EC1944" stroke-linecap="round" stroke-linejoin="round"/>
</svg>
