<svg width="16" height="16" viewBox="0 0 16 16" fill="none" xmlns="http://www.w3.org/2000/svg">
<path d="M13.6665 6.3335C14.6665 6.3335 14.6665 6.66683 14.6665 7.3335V8.66683C14.6665 9.3335 14.6665 9.66683 13.6665 9.66683" stroke="#1BB24E" stroke-linecap="round" stroke-linejoin="round"/>
<path d="M4.25342 6.6665C4.47342 7.53984 4.47342 8.45984 4.25342 9.33317" stroke="#1BB24E" stroke-linecap="round" stroke-linejoin="round"/>
<path d="M6.58643 6.6665C6.80643 7.53984 6.80643 8.45984 6.58643 9.33317" stroke="#1BB24E" stroke-linecap="round" stroke-linejoin="round"/>
<path d="M8.91992 6.6665C9.13992 7.53984 9.13992 8.45984 8.91992 9.33317" stroke="#E5E5E5" stroke-linecap="round" stroke-linejoin="round"/>
<path d="M8.66683 12.6668H4.66683C2.00016 12.6668 1.3335 12.0002 1.3335 9.3335V6.66683C1.3335 4.00016 2.00016 3.3335 4.66683 3.3335H8.66683C11.3335 3.3335 12.0002 4.00016 12.0002 6.66683V9.3335C12.0002 12.0002 11.3335 12.6668 8.66683 12.6668Z" stroke="#1BB24E" stroke-linecap="round" stroke-linejoin="round"/>
</svg>
