<svg width="16" height="16" viewBox="0 0 16 16" fill="none" xmlns="http://www.w3.org/2000/svg">
<path d="M2 14.6665H14" stroke="#EC1944" stroke-linecap="round" stroke-linejoin="round"/>
<path d="M3.73332 5.58691H2.66667C2.3 5.58691 2 5.88691 2 6.25358V12.0002C2 12.3669 2.3 12.6669 2.66667 12.6669H3.73332C4.09998 12.6669 4.39998 12.3669 4.39998 12.0002V6.25358C4.39998 5.88691 4.09998 5.58691 3.73332 5.58691Z" stroke="#E5E5E5" stroke-linecap="round" stroke-linejoin="round"/>
<path d="M8.53312 3.45996H7.46647C7.0998 3.45996 6.7998 3.75996 6.7998 4.12663V12C6.7998 12.3666 7.0998 12.6666 7.46647 12.6666H8.53312C8.89979 12.6666 9.19979 12.3666 9.19979 12V4.12663C9.19979 3.75996 8.89979 3.45996 8.53312 3.45996Z" stroke="#E5E5E5" stroke-linecap="round" stroke-linejoin="round"/>
<path d="M13.3334 1.3335H12.2668C11.9001 1.3335 11.6001 1.6335 11.6001 2.00016V12.0002C11.6001 12.3668 11.9001 12.6668 12.2668 12.6668H13.3334C13.7001 12.6668 14.0001 12.3668 14.0001 12.0002V2.00016C14.0001 1.6335 13.7001 1.3335 13.3334 1.3335Z" stroke="#E5E5E5" stroke-linecap="round" stroke-linejoin="round"/>
</svg>
