<svg width="22" height="22" viewBox="0 0 22 22" fill="none" xmlns="http://www.w3.org/2000/svg">
<path d="M8.33838 12.9688C8.33838 14.6488 9.72088 16.0313 11.4009 16.0313C13.0809 16.0313 14.4634 14.6488 14.4634 12.9688" stroke="white" stroke-width="1.5" stroke-miterlimit="10" stroke-linecap="round" stroke-linejoin="round"/>
<path d="M8.60842 2.24902L5.44092 5.42527" stroke="white" stroke-width="1.5" stroke-miterlimit="10" stroke-linecap="round" stroke-linejoin="round"/>
<path d="M14.1914 2.24902L17.3589 5.42527" stroke="white" stroke-width="1.5" stroke-miterlimit="10" stroke-linecap="round" stroke-linejoin="round"/>
<path d="M2.64893 7.36963C2.64893 5.75088 3.51518 5.61963 4.59143 5.61963H18.2064C19.2827 5.61963 20.1489 5.75088 20.1489 7.36963C20.1489 9.25088 19.2827 9.11963 18.2064 9.11963H4.59143C3.51518 9.11963 2.64893 9.25088 2.64893 7.36963Z" stroke="white" stroke-width="1.5"/>
<path d="M3.96143 9.25098L5.19518 16.811C5.47518 18.5085 6.14893 19.751 8.65143 19.751H13.9277C16.6489 19.751 17.0514 18.561 17.3664 16.916L18.8364 9.25098" stroke="white" stroke-width="1.5" stroke-linecap="round"/>
</svg>
