<svg width="18" height="14" viewBox="0 0 18 14" fill="none" xmlns="http://www.w3.org/2000/svg">
<path d="M10.676 13.44L17.2461 7.00001L10.676 0.560014C10.6167 0.484031 10.5413 0.421368 10.455 0.376265C10.3686 0.331163 10.2734 0.304675 10.1756 0.298594C10.0779 0.292513 9.97995 0.306981 9.88844 0.341019C9.79693 0.375057 9.71399 0.42787 9.64523 0.495882C9.57648 0.563895 9.52351 0.645519 9.48991 0.73523C9.45632 0.82494 9.44288 0.920642 9.45051 1.01586C9.45814 1.11107 9.48666 1.20357 9.53415 1.28711C9.58163 1.37064 9.64696 1.44324 9.72572 1.50001L14.6413 6.33335L1.56269 6.33335C1.38137 6.33335 1.20748 6.40358 1.07927 6.52861C0.951053 6.65363 0.879022 6.8232 0.879022 7.00001C0.879022 7.17682 0.951053 7.34639 1.07927 7.47142C1.20748 7.59644 1.38137 7.66668 1.56269 7.66668L14.6413 7.66668L9.72572 12.5C9.59789 12.6255 9.52643 12.7955 9.52707 12.9724C9.52771 13.1493 9.6004 13.3187 9.72914 13.4433C9.85787 13.568 10.0321 13.6377 10.2135 13.6371C10.395 13.6364 10.5687 13.5655 10.6965 13.44L10.676 13.44Z" fill="#E8143E"/>
</svg>
