<svg width="16" height="16" viewBox="0 0 16 16" fill="none" xmlns="http://www.w3.org/2000/svg">
<path d="M12.2733 12.0601L10.3933 13.9401" stroke="black" stroke-linecap="round" stroke-linejoin="round"/>
<path d="M12.2733 13.9401L10.3933 12.0601" stroke="black" stroke-linecap="round" stroke-linejoin="round"/>
<path d="M8.10671 7.24659C8.04004 7.23992 7.96004 7.23992 7.88671 7.24659C6.30004 7.19325 5.04004 5.89325 5.04004 4.29325C5.04004 2.65992 6.36004 1.33325 8.00004 1.33325C9.63337 1.33325 10.96 2.65992 10.96 4.29325C10.9534 5.89325 9.69337 7.19325 8.10671 7.24659Z" stroke="black" stroke-linecap="round" stroke-linejoin="round"/>
<path d="M7.99995 14.54C6.78662 14.54 5.57995 14.2333 4.65995 13.62C3.04662 12.54 3.04662 10.78 4.65995 9.70662C6.49328 8.47995 9.49995 8.47995 11.3333 9.70662" stroke="black" stroke-linecap="round" stroke-linejoin="round"/>
</svg>
