<svg width="40" height="40" viewBox="0 0 40 40" fill="none" xmlns="http://www.w3.org/2000/svg">
<path d="M15.0001 29.5815C14.3167 29.5815 13.7501 29.0149 13.7501 28.3315V21.3482L12.5501 22.5482C12.0667 23.0315 11.2667 23.0315 10.7834 22.5482C10.3001 22.0649 10.3001 21.2649 10.7834 20.7815L14.1167 17.4482C14.4667 17.0982 15.0167 16.9815 15.4834 17.1815C15.9501 17.3649 16.2501 17.8315 16.2501 18.3315V28.3315C16.2501 29.0149 15.6834 29.5815 15.0001 29.5815Z" fill="#323232"/>
<path d="M18.334 22.9132C18.0174 22.9132 17.7007 22.7965 17.4507 22.5465L14.1174 19.2132C13.634 18.7298 13.634 17.9298 14.1174 17.4465C14.6007 16.9632 15.4007 16.9632 15.884 17.4465L19.2174 20.7798C19.7007 21.2632 19.7007 22.0632 19.2174 22.5465C18.9674 22.7965 18.6507 22.9132 18.334 22.9132Z" fill="#323232"/>
<path d="M25.0007 37.9154H15.0007C5.95065 37.9154 2.08398 34.0487 2.08398 24.9987V14.9987C2.08398 5.9487 5.95065 2.08203 15.0007 2.08203H23.334C24.0173 2.08203 24.584 2.6487 24.584 3.33203C24.584 4.01537 24.0173 4.58203 23.334 4.58203H15.0007C7.31732 4.58203 4.58398 7.31537 4.58398 14.9987V24.9987C4.58398 32.682 7.31732 35.4154 15.0007 35.4154H25.0007C32.684 35.4154 35.4173 32.682 35.4173 24.9987V16.6654C35.4173 15.982 35.984 15.4154 36.6673 15.4154C37.3507 15.4154 37.9173 15.982 37.9173 16.6654V24.9987C37.9173 34.0487 34.0507 37.9154 25.0007 37.9154Z" fill="#323232"/>
<path d="M36.6683 17.9149H30.0016C24.3016 17.9149 22.085 15.6982 22.085 9.99819V3.33152C22.085 2.83152 22.385 2.36486 22.8516 2.18152C23.3183 1.98152 23.8516 2.09819 24.2183 2.44819L37.5516 15.7815C37.9016 16.1315 38.0183 16.6815 37.8183 17.1482C37.6183 17.6149 37.1683 17.9149 36.6683 17.9149ZM24.585 6.34819V9.99819C24.585 14.2982 25.7016 15.4149 30.0016 15.4149H33.6516L24.585 6.34819Z" fill="#323232"/>
</svg>
