<svg width="35" height="46" viewBox="0 0 35 46" fill="none" xmlns="http://www.w3.org/2000/svg">
<path d="M32.1064 16.7188L31.3939 38.2844C31.3332 40.1313 30.5551 41.882 29.2249 43.1647C27.8946 44.4474 26.1168 45.1612 24.2689 45.1547H10.7314C8.88461 45.1613 7.10787 44.4484 5.7778 43.1672C4.44772 41.886 3.66888 40.1372 3.60637 38.2915L2.89387 16.7188C2.87829 16.2464 3.051 15.7871 3.37403 15.442C3.69705 15.097 4.14393 14.8943 4.61634 14.8788C5.08876 14.8632 5.54802 15.0359 5.89309 15.3589C6.23817 15.6819 6.44078 16.1288 6.45637 16.6012L7.16887 38.1722C7.20435 39.093 7.59529 39.9643 8.25958 40.603C8.92388 41.2417 9.80983 41.5982 10.7314 41.5975H24.2689C25.1916 41.5981 26.0786 41.2407 26.7431 40.6005C27.4075 39.9602 27.7977 39.0872 27.8314 38.165L28.5439 16.6012C28.5595 16.1288 28.7621 15.6819 29.1072 15.3589C29.4522 15.0359 29.9115 14.8632 30.3839 14.8788C30.8563 14.8943 31.3032 15.097 31.6262 15.442C31.9492 15.7871 32.122 16.2464 32.1064 16.7188ZM34.463 9.54213C34.463 10.0145 34.2753 10.4676 33.9412 10.8017C33.6072 11.1357 33.1541 11.3234 32.6817 11.3234H2.32031C1.8479 11.3234 1.39483 11.1357 1.06078 10.8017C0.726729 10.4676 0.539062 10.0145 0.539062 9.54213C0.539062 9.06971 0.726729 8.61664 1.06078 8.28259C1.39483 7.94854 1.8479 7.76088 2.32031 7.76088H7.84219C8.40657 7.7624 8.95133 7.55388 9.37046 7.17591C9.78959 6.79794 10.0531 6.27754 10.1097 5.716C10.2412 4.39874 10.8583 3.1776 11.8409 2.29049C12.8235 1.40339 14.1012 0.913871 15.425 0.917315H19.5753C20.8991 0.913871 22.1767 1.40339 23.1593 2.29049C24.1419 3.1776 24.7591 4.39874 24.8905 5.716C24.9471 6.27754 25.2107 6.79794 25.6298 7.17591C26.0489 7.55388 26.5937 7.7624 27.1581 7.76088H32.6799C33.1524 7.76088 33.6054 7.94854 33.9395 8.28259C34.2735 8.61664 34.4612 9.06971 34.4612 9.54213H34.463ZM13.202 7.76088H21.8018C21.5678 7.22604 21.4147 6.65932 21.3476 6.07938C21.3035 5.64031 21.098 5.23326 20.7709 4.93708C20.4437 4.6409 20.0183 4.47669 19.5771 4.47625H15.4267C14.9855 4.47669 14.5601 4.6409 14.233 4.93708C13.9058 5.23326 13.7003 5.64031 13.6562 6.07938C13.5886 6.65942 13.4366 7.22614 13.202 7.76088ZM14.9957 34.7486V19.5813C14.9957 19.1088 14.808 18.6558 14.474 18.3217C14.1399 17.9877 13.6869 17.8 13.2144 17.8C12.742 17.8 12.289 17.9877 11.9549 18.3217C11.6209 18.6558 11.4332 19.1088 11.4332 19.5813V34.7557C11.4332 35.2281 11.6209 35.6812 11.9549 36.0153C12.289 36.3493 12.742 36.537 13.2144 36.537C13.6869 36.537 14.1399 36.3493 14.474 36.0153C14.808 35.6812 14.9957 35.2281 14.9957 34.7557V34.7486ZM23.5706 34.7486V19.5813C23.5706 19.1088 23.383 18.6558 23.0489 18.3217C22.7149 17.9877 22.2618 17.8 21.7894 17.8C21.317 17.8 20.8639 17.9877 20.5298 18.3217C20.1958 18.6558 20.0081 19.1088 20.0081 19.5813V34.7557C20.0081 35.2281 20.1958 35.6812 20.5298 36.0153C20.8639 36.3493 21.317 36.537 21.7894 36.537C22.2618 36.537 22.7149 36.3493 23.0489 36.0153C23.383 35.6812 23.5706 35.2281 23.5706 34.7557V34.7486Z" fill="#EC1944"/>
</svg>
