<svg width="14" height="14" viewBox="0 0 14 14" fill="none" xmlns="http://www.w3.org/2000/svg">
<path d="M12.6178 8.60433C12.6178 9.1235 12.4778 9.6135 12.2212 10.0335C11.7428 10.8327 10.862 11.3752 9.84701 11.3752C9.29867 11.3752 8.78534 11.2118 8.35367 10.926C7.99201 10.7043 7.69451 10.3952 7.47867 10.0335C7.22201 9.6135 7.07617 9.1235 7.07617 8.60433C7.07617 7.076 8.31867 5.8335 9.84701 5.8335C10.057 5.8335 10.2612 5.85683 10.4537 5.90349C11.6962 6.17766 12.6178 7.286 12.6178 8.60433Z" stroke="#222222" stroke-miterlimit="10" stroke-linecap="round" stroke-linejoin="round"/>
<path d="M12.069 2.34483V3.63983C12.069 4.11233 11.7715 4.70151 11.4798 4.99901L10.4532 5.90317C10.2607 5.8565 10.0565 5.83317 9.8465 5.83317C8.31817 5.83317 7.07567 7.07567 7.07567 8.604C7.07567 9.12317 7.2215 9.61318 7.47817 10.0332C7.694 10.3948 7.9915 10.704 8.35317 10.9257V11.124C8.35317 11.4798 8.11982 11.9523 7.82232 12.1273L6.99983 12.6582C6.23567 13.1307 5.174 12.5998 5.174 11.6548V8.53401C5.174 8.11984 4.93483 7.58901 4.7015 7.29734L2.46148 4.94067C2.16982 4.64317 1.93066 4.11234 1.93066 3.76234V2.40317C1.93066 1.69733 2.46151 1.1665 3.10901 1.1665H10.8907C11.5382 1.1665 12.069 1.69733 12.069 2.34483Z" stroke="#222222" stroke-miterlimit="10" stroke-linecap="round" stroke-linejoin="round"/>
</svg>
