<svg width="16" height="17" viewBox="0 0 16 17" fill="none" xmlns="http://www.w3.org/2000/svg">
<path d="M12.0993 6.59566L11.8993 12.6492C11.8822 13.1676 11.6638 13.659 11.2904 14.0191C10.917 14.3791 10.418 14.5795 9.89928 14.5777H6.09928C5.58089 14.5795 5.08216 14.3794 4.7088 14.0198C4.33545 13.6602 4.11683 13.1693 4.09928 12.6512L3.89928 6.59566C3.89491 6.46305 3.94339 6.33414 4.03406 6.23728C4.12473 6.14041 4.25017 6.08354 4.38278 6.07916C4.51539 6.07478 4.6443 6.12327 4.74117 6.21394C4.83803 6.30461 4.89491 6.43005 4.89928 6.56266L5.09928 12.6177C5.10924 12.8761 5.21898 13.1207 5.40545 13.3C5.59191 13.4793 5.8406 13.5794 6.09928 13.5792H9.89928C10.1583 13.5793 10.4073 13.479 10.5938 13.2993C10.7803 13.1196 10.8898 12.8745 10.8993 12.6157L11.0993 6.56266C11.1037 6.43005 11.1605 6.30461 11.2574 6.21394C11.3543 6.12327 11.4832 6.07478 11.6158 6.07916C11.7484 6.08354 11.8738 6.14041 11.9645 6.23728C12.0552 6.33414 12.1037 6.46305 12.0993 6.59566ZM12.7608 4.58116C12.7608 4.71377 12.7081 4.84095 12.6143 4.93471C12.5206 5.02848 12.3934 5.08116 12.2608 5.08116H3.73828C3.60567 5.08116 3.4785 5.02848 3.38473 4.93471C3.29096 4.84095 3.23828 4.71377 3.23828 4.58116C3.23828 4.44855 3.29096 4.32138 3.38473 4.22761C3.4785 4.13384 3.60567 4.08116 3.73828 4.08116H5.28828C5.44671 4.08159 5.59962 4.02306 5.71727 3.91696C5.83492 3.81086 5.90889 3.66479 5.92478 3.50716C5.96168 3.1374 6.13491 2.79463 6.41073 2.54562C6.68655 2.2966 7.04519 2.15919 7.41678 2.16016H8.58178C8.95337 2.15919 9.31202 2.2966 9.58783 2.54562C9.86365 2.79463 10.0369 3.1374 10.0738 3.50716C10.0897 3.66479 10.1636 3.81086 10.2813 3.91696C10.3989 4.02306 10.5519 4.08159 10.7103 4.08116H12.2603C12.3929 4.08116 12.5201 4.13384 12.6138 4.22761C12.7076 4.32138 12.7603 4.44855 12.7603 4.58116H12.7608ZM6.79278 4.08116H9.20678C9.14108 3.93103 9.09811 3.77195 9.07928 3.60916C9.06689 3.48592 9.0092 3.37165 8.91738 3.28852C8.82556 3.20538 8.70615 3.15928 8.58228 3.15916H7.41728C7.29341 3.15928 7.174 3.20538 7.08218 3.28852C6.99036 3.37165 6.93267 3.48592 6.92028 3.60916C6.9013 3.77198 6.85866 3.93106 6.79278 4.08116ZM7.29628 11.6567V7.39916C7.29628 7.26655 7.2436 7.13938 7.14983 7.04561C7.05607 6.95184 6.92889 6.89916 6.79628 6.89916C6.66367 6.89916 6.5365 6.95184 6.44273 7.04561C6.34896 7.13938 6.29628 7.26655 6.29628 7.39916V11.6587C6.29628 11.7913 6.34896 11.9184 6.44273 12.0122C6.5365 12.106 6.66367 12.1587 6.79628 12.1587C6.92889 12.1587 7.05607 12.106 7.14983 12.0122C7.2436 11.9184 7.29628 11.7913 7.29628 11.6587V11.6567ZM9.70328 11.6567V7.39916C9.70328 7.26655 9.6506 7.13938 9.55683 7.04561C9.46307 6.95184 9.33589 6.89916 9.20328 6.89916C9.07067 6.89916 8.9435 6.95184 8.84973 7.04561C8.75596 7.13938 8.70328 7.26655 8.70328 7.39916V11.6587C8.70328 11.7913 8.75596 11.9184 8.84973 12.0122C8.9435 12.106 9.07067 12.1587 9.20328 12.1587C9.33589 12.1587 9.46307 12.106 9.55683 12.0122C9.6506 11.9184 9.70328 11.7913 9.70328 11.6587V11.6567Z" fill="#EC1944"/>
</svg>
