<svg width="14" height="14" viewBox="0 0 14 14" fill="none" xmlns="http://www.w3.org/2000/svg">
<path d="M12.6174 8.60421C12.6174 9.12337 12.4774 9.61338 12.2207 10.0334C11.7424 10.8325 10.8615 11.375 9.84652 11.375C9.29818 11.375 8.78485 11.2117 8.35318 10.9259C7.99152 10.7042 7.69402 10.395 7.47819 10.0334C7.22152 9.61338 7.07568 9.12337 7.07568 8.60421C7.07568 7.07587 8.31818 5.83337 9.84652 5.83337C10.0565 5.83337 10.2607 5.8567 10.4532 5.90337C11.6957 6.17754 12.6174 7.28587 12.6174 8.60421Z" stroke="#EC1944" stroke-miterlimit="10" stroke-linecap="round" stroke-linejoin="round"/>
<path d="M12.069 2.34495V3.63995C12.069 4.11245 11.7715 4.70163 11.4798 4.99913L10.4532 5.90329C10.2607 5.85662 10.0565 5.83329 9.8465 5.83329C8.31817 5.83329 7.07567 7.07579 7.07567 8.60413C7.07567 9.12329 7.2215 9.6133 7.47817 10.0333C7.694 10.395 7.9915 10.7041 8.35317 10.9258V11.1241C8.35317 11.48 8.11982 11.9525 7.82232 12.1275L6.99983 12.6583C6.23567 13.1308 5.174 12.6 5.174 11.655V8.53413C5.174 8.11996 4.93483 7.58913 4.7015 7.29746L2.46148 4.94079C2.16982 4.64329 1.93066 4.11247 1.93066 3.76247V2.40329C1.93066 1.69746 2.46151 1.16663 3.10901 1.16663H10.8907C11.5382 1.16663 12.069 1.69745 12.069 2.34495Z" stroke="#EC1944" stroke-miterlimit="10" stroke-linecap="round" stroke-linejoin="round"/>
</svg>
