<svg width="17" height="16" viewBox="0 0 17 16" fill="none" xmlns="http://www.w3.org/2000/svg">
<path d="M2.36084 4H3.69417H14.3608" stroke="black" stroke-linecap="round" stroke-linejoin="round"/>
<path d="M5.69434 3.99967V2.66634C5.69434 2.31272 5.83481 1.97358 6.08486 1.72353C6.33491 1.47348 6.67405 1.33301 7.02767 1.33301H9.69434C10.048 1.33301 10.3871 1.47348 10.6371 1.72353C10.8872 1.97358 11.0277 2.31272 11.0277 2.66634V3.99967M13.0277 3.99967V13.333C13.0277 13.6866 12.8872 14.0258 12.6371 14.2758C12.3871 14.5259 12.048 14.6663 11.6943 14.6663H5.02767C4.67405 14.6663 4.33491 14.5259 4.08486 14.2758C3.83481 14.0258 3.69434 13.6866 3.69434 13.333V3.99967H13.0277Z" stroke="black" stroke-linecap="round" stroke-linejoin="round"/>
<path d="M7.02734 7.33301V11.333" stroke="black" stroke-linecap="round" stroke-linejoin="round"/>
<path d="M9.69434 7.33301V11.333" stroke="black" stroke-linecap="round" stroke-linejoin="round"/>
</svg>
