<svg width="80" height="40" viewBox="0 0 80 40" fill="none" xmlns="http://www.w3.org/2000/svg">
<g clip-path="url(#clip0_7470_21524)">
<path fill-rule="evenodd" clip-rule="evenodd" d="M43.3271 14.1258C43.3271 13.2507 44.5522 12.6154 46.4285 12.6154C48.571 12.6154 50.5849 13.3777 51.8372 14.4504C51.8919 14.4971 51.9562 14.5311 52.0255 14.5501C52.0947 14.569 52.1674 14.5724 52.2381 14.56C52.3089 14.5476 52.376 14.5197 52.4348 14.4783C52.4936 14.4369 52.5425 14.383 52.5782 14.3204L54.1096 11.269C54.1664 11.1694 54.1849 11.0525 54.1618 10.9402C54.1386 10.8279 54.0754 10.728 53.9839 10.6593C52.0941 9.23466 49.5518 8.21204 46.39 8.21204C41.2039 8.21204 38.3044 11.121 38.3044 14.4394C38.3044 22.1873 50.0241 19.5059 50.0241 22.9131C50.0241 23.8453 48.9625 24.635 46.7165 24.635C44.4851 24.635 41.8472 23.7519 40.3145 22.5325C40.2603 22.4897 40.1976 22.4589 40.1306 22.4421C40.0637 22.4253 39.9939 22.4229 39.9259 22.435C39.858 22.4472 39.7934 22.4736 39.7363 22.5126C39.6792 22.5516 39.6311 22.6022 39.5949 22.6612L37.8585 25.5743C37.7995 25.6699 37.7768 25.7836 37.7944 25.8946C37.812 26.0056 37.8688 26.1065 37.9545 26.179C40.0463 27.9429 43.2035 28.984 46.4713 28.984C51.9432 28.984 55.0061 26.2799 55.0061 22.6347C55.0061 14.8263 43.3271 17.2399 43.3271 14.1258Z" fill="white"/>
<path fill-rule="evenodd" clip-rule="evenodd" d="M19.6983 0.915771H15.1355C15.0474 0.915771 14.963 0.950858 14.9007 1.01331C14.8385 1.07577 14.8035 1.16047 14.8035 1.2488V10.9103C13.275 9.23551 11.2243 8.21457 8.91664 8.21457C3.99206 8.21457 0 12.8639 0 18.5993C0 24.3347 3.99206 28.9853 8.91664 28.9853C11.2243 28.9853 13.2754 27.9644 14.8035 26.2896V28.1607C14.8035 28.2045 14.812 28.2478 14.8287 28.2883C14.8453 28.3287 14.8698 28.3654 14.9006 28.3964C14.9314 28.4273 14.9681 28.4518 15.0084 28.4685C15.0487 28.4852 15.0918 28.4938 15.1355 28.4938H19.6983C19.7864 28.4938 19.8708 28.4587 19.9331 28.3962C19.9953 28.3338 20.0303 28.2491 20.0303 28.1607V1.2488C20.0302 1.16051 19.9952 1.07587 19.9329 1.01344C19.8707 0.951005 19.7863 0.915883 19.6983 0.915771ZM10.0122 24.6232C7.3655 24.6232 5.22006 21.9254 5.22006 18.5972C5.22006 15.2691 7.3655 12.5725 10.0122 12.5725C12.6472 12.5725 14.7842 15.2468 14.8035 18.5539V18.6422C14.7842 21.9493 12.6472 24.6232 10.0122 24.6232Z" fill="white"/>
<path fill-rule="evenodd" clip-rule="evenodd" d="M68.4764 8.21289C66.0665 8.21289 64.2119 9.2292 62.9948 10.8872V1.2488C62.9948 1.20506 62.9862 1.16176 62.9696 1.12135C62.9529 1.08095 62.9284 1.04424 62.8976 1.01331C62.8668 0.982388 62.8302 0.957858 62.7899 0.941121C62.7497 0.924385 62.7065 0.915771 62.6629 0.915771H58.1004C58.0124 0.915771 57.9279 0.950844 57.8656 1.01329C57.8032 1.07573 57.7682 1.16043 57.7681 1.2488V28.1599C57.7681 28.2037 57.7767 28.247 57.7934 28.2874C57.8101 28.3279 57.8346 28.3646 57.8654 28.3955C57.8963 28.4265 57.9329 28.451 57.9733 28.4677C58.0136 28.4844 58.0568 28.493 58.1004 28.4929H62.6629C62.7065 28.493 62.7497 28.4844 62.79 28.4677C62.8303 28.451 62.8669 28.4264 62.8977 28.3955C62.9286 28.3646 62.953 28.3278 62.9697 28.2874C62.9863 28.247 62.9949 28.2037 62.9948 28.1599V16.6512C62.9986 14.0463 64.8532 12.5944 67.0933 12.5944C69.3335 12.5944 71.0967 13.9773 71.0967 17.3723L71.1013 28.1595C71.1013 28.2032 71.1098 28.2466 71.1265 28.287C71.1431 28.3274 71.1676 28.3642 71.1984 28.3951C71.2293 28.426 71.2659 28.4506 71.3062 28.4673C71.3465 28.484 71.3897 28.4926 71.4333 28.4925H75.9957C76.0394 28.4926 76.0826 28.484 76.1229 28.4673C76.1632 28.4506 76.1999 28.426 76.2307 28.3951C76.2616 28.3642 76.2861 28.3275 76.3028 28.287C76.3195 28.2466 76.3281 28.2033 76.3281 28.1595V17.0523C76.3281 10.9469 72.8352 8.21289 68.4764 8.21289Z" fill="white"/>
<path d="M25.958 3.09898C25.958 1.3876 27.3805 0 29.0469 0C29.8661 0 30.6518 0.326499 31.231 0.907671C31.8103 1.48884 32.1357 2.27708 32.1357 3.09898C32.1357 3.92088 31.8103 4.70912 31.231 5.29029C30.6518 5.87147 29.8661 6.19796 29.0469 6.19796C27.3805 6.19796 25.958 4.81162 25.958 3.09898ZM34.9601 23.4564C32.8725 24.6733 30.6328 24.9941 29.0926 24.9966C27.5523 24.9992 25.3113 24.6733 23.225 23.4564C22.883 23.2642 22.7006 23.5998 22.7715 23.8924C23.4806 26.8144 26.0313 28.9803 29.0749 28.9984H29.1127C32.1538 28.9807 34.7028 26.8144 35.4153 23.8924C35.4845 23.5998 35.3021 23.2642 34.9601 23.4564ZM33.725 16.079C32.0766 17.0398 30.3084 17.2929 29.0913 17.295C27.8742 17.2971 26.1059 17.0398 24.4576 16.079C24.1872 15.9272 24.0435 16.1921 24.0996 16.4229C24.6592 18.7301 26.673 20.4407 29.0766 20.4545H29.106C31.5096 20.4407 33.5234 18.7306 34.0829 16.4229C34.1391 16.1921 33.9953 15.9272 33.725 16.079ZM32.4094 9.79102C31.2292 10.4789 29.963 10.6602 29.0913 10.6618C28.2195 10.6635 26.9538 10.4789 25.7732 9.79102C25.5795 9.68211 25.4764 9.87217 25.5167 10.0374C25.9173 11.6895 27.3608 12.9144 29.0791 12.9245H29.1001C30.8214 12.9144 32.2636 11.6895 32.6626 10.0374C32.7061 9.87217 32.603 9.68211 32.4094 9.79102Z" fill="white"/>
<path d="M43.2837 39.8642L42.1332 36.1399L40.9824 39.8642H39.448L37.7896 34.3958H39.2787L40.2942 38.0742L41.4899 34.3958H42.7648L43.9606 38.0742L44.9761 34.3958H46.4765L44.8181 39.8621L43.2837 39.8642Z" fill="white"/>
<path d="M46.7131 32.9481C46.718 32.7247 46.81 32.5121 46.9692 32.3559C47.1284 32.1997 47.3422 32.1122 47.565 32.1122C47.7877 32.1122 48.0015 32.1997 48.1607 32.3559C48.3199 32.5121 48.4119 32.7247 48.4168 32.9481C48.4193 33.0619 48.3991 33.1751 48.3575 33.281C48.3158 33.3869 48.2534 33.4834 48.1741 33.5648C48.0947 33.6462 48 33.7108 47.8954 33.755C47.7908 33.7991 47.6784 33.8219 47.565 33.8219C47.4515 33.8219 47.3391 33.7991 47.2345 33.755C47.1299 33.7108 47.0352 33.6462 46.9558 33.5648C46.8765 33.4834 46.8141 33.3869 46.7724 33.281C46.7308 33.1751 46.7106 33.0619 46.7131 32.9481ZM46.8485 39.8642V34.3958H48.2818V39.8621L46.8485 39.8642Z" fill="white"/>
<path d="M48.9131 39.8641V34.3957H50.346V35.1311C50.7408 34.656 51.4064 34.2599 52.0833 34.2599V35.6635C51.9533 35.6378 51.8209 35.6263 51.6885 35.6294C51.2149 35.6294 50.5828 35.901 50.3473 36.2517V39.8629L48.9131 39.8641Z" fill="white"/>
<path d="M52.2861 37.1247C52.2861 35.5404 53.4596 34.2612 55.1068 34.2612C56.7413 34.2612 57.8369 35.4836 57.8369 37.2606V37.6003H53.787C53.8884 38.268 54.4299 38.8227 55.3549 38.8227C55.8159 38.8227 56.4496 38.6301 56.7991 38.2907L57.4421 39.2415C56.9006 39.7393 56.0431 39.9983 55.1973 39.9983C53.5384 40 52.2861 38.8794 52.2861 37.1247ZM55.1068 35.4382C54.2157 35.4382 53.8318 36.0609 53.7757 36.6042H56.4605C56.4157 36.0836 56.0544 35.4382 55.1068 35.4382Z" fill="white"/>
<path d="M58.5361 39.8642V32.3143H59.9691V39.8642H58.5361Z" fill="white"/>
<path d="M60.7021 37.1247C60.7021 35.5404 61.8757 34.2612 63.5228 34.2612C65.1573 34.2612 66.2529 35.4836 66.2529 37.2606V37.6003H62.203C62.3044 38.268 62.8459 38.8227 63.7709 38.8227C64.2319 38.8227 64.8652 38.6301 65.2152 38.2907L65.8581 39.2415C65.3166 39.7393 64.4591 39.9983 63.6129 39.9983C61.9545 40 60.7021 38.8794 60.7021 37.1247ZM63.5228 35.4382C62.6313 35.4382 62.2478 36.0609 62.1917 36.6042H64.8786C64.8317 36.0836 64.4704 35.4382 63.5228 35.4382Z" fill="white"/>
<path d="M66.479 39.151L67.0993 38.1095C67.5054 38.4942 68.3063 38.8664 68.9853 38.8664C69.6056 38.8664 69.899 38.6284 69.899 38.289C69.899 37.3947 66.6718 38.1305 66.6718 35.9801C66.6718 35.0631 67.4614 34.2595 68.9057 34.2595C69.8198 34.2595 70.5528 34.5766 71.0943 35.0063L70.5193 36.0251C70.1919 35.6858 69.5712 35.3915 68.9057 35.3915C68.3868 35.3915 68.0482 35.6177 68.0482 35.9234C68.0482 36.7269 71.2862 36.0495 71.2862 38.255C71.2862 39.2641 70.4287 39.9983 68.917 39.9983C67.9681 40 67.054 39.683 66.479 39.151Z" fill="white"/>
<path d="M71.522 39.151L72.1423 38.1095C72.5488 38.4942 73.3497 38.8664 74.0283 38.8664C74.649 38.8664 74.9419 38.6284 74.9419 38.289C74.9419 37.3947 71.7148 38.1305 71.7148 35.9801C71.7148 35.0631 72.5044 34.2595 73.9482 34.2595C74.8623 34.2595 75.5958 34.5766 76.1373 35.0063L75.5618 36.0251C75.2345 35.6858 74.6142 35.3915 73.9482 35.3915C73.4294 35.3915 73.0911 35.6177 73.0911 35.9234C73.0911 36.7269 76.3292 36.0495 76.3292 38.255C76.3292 39.2641 75.4717 39.9983 73.96 39.9983C73.0098 40 72.0974 39.683 71.522 39.151Z" fill="white"/>
<path d="M78.5082 38.6944V38.8879H78.1356V39.8642H77.9043V38.8879H77.5312V38.6944H78.5082ZM79.7685 39.8642L79.7266 39.1759C79.722 39.0859 79.722 38.9741 79.7178 38.8492H79.7052C79.675 38.9526 79.6406 39.0901 79.6063 39.1978L79.3967 39.847H79.157L78.9474 39.1805C78.9256 39.0901 78.8917 38.9526 78.8636 38.8492H78.851C78.851 38.9568 78.8464 39.0687 78.8422 39.1759L78.8003 39.8642H78.5774L78.6633 38.6944H79.0103L79.2119 39.2663C79.2375 39.3567 79.2588 39.4425 79.289 39.5632H79.2932C79.323 39.4555 79.3489 39.3567 79.3745 39.2688L79.5761 38.6927H79.9114L80.0015 39.8625L79.7685 39.8642Z" fill="white"/>
</g>
<defs>
<clipPath id="clip0_7470_21524">
<rect width="80" height="40" fill="white"/>
</clipPath>
</defs>
</svg>
