<svg width="19" height="19" viewBox="0 0 19 19" fill="none" xmlns="http://www.w3.org/2000/svg">
<path d="M1.90334 9.47771C2.59684 11.0136 3.77792 12.6775 5.14355 14.0432C6.60014 15.4998 8.20706 16.6533 9.6684 17.2907C10.464 17.638 11.1758 17.8116 11.775 17.8116C12.3707 17.8116 12.8549 17.6396 13.1986 17.2957L14.577 15.9178C14.9958 15.4986 14.9582 14.7794 14.4932 14.3142L12.4621 12.2828C11.9966 11.8178 11.277 11.7805 10.8585 12.1992L10.226 12.8317C10.0508 12.9628 8.96754 12.6291 7.74892 11.4105C6.5296 10.1914 6.1952 9.10744 6.32701 8.93383L6.96019 8.30066C7.3789 7.88171 7.34137 7.16208 6.87635 6.69706L4.84477 4.66596C4.37927 4.20093 3.66012 4.16317 3.24117 4.58236L1.8632 5.96033C1.17516 6.64813 1.18965 7.89738 1.90334 9.47771ZM2.53509 6.63198L3.9133 5.25401C3.9228 5.24451 3.9418 5.23881 3.96626 5.23881C4.01994 5.23881 4.1014 5.26564 4.17336 5.33761L6.20446 7.36871C6.30944 7.47368 6.31846 7.59884 6.2883 7.62901L5.65512 8.26194C4.86805 9.04949 5.77459 10.7797 7.07704 12.0821C7.72565 12.7305 8.43886 13.2487 9.08534 13.5406C10.1493 14.0213 10.6773 13.724 10.897 13.5038L11.5302 12.8709C11.5606 12.8405 11.6852 12.8497 11.7905 12.9545L13.8213 14.9858C13.9263 15.0908 13.9353 15.2157 13.9052 15.2459L12.5269 16.6241C12.1446 17.0067 11.2181 16.9305 10.0484 16.4198C8.69322 15.8287 7.18985 14.7459 5.8152 13.3715C4.52747 12.0838 3.4174 10.5218 2.76902 9.08654C2.2451 7.92683 2.1577 7.00937 2.53509 6.63198Z" fill="#25282B"/>
<path d="M13.2995 1.90039C11.5505 1.90039 10.1328 3.31804 10.1328 5.06706C10.1328 6.81607 11.5505 8.23372 13.2995 8.23372C15.0485 8.23372 16.4661 6.81607 16.4661 5.06706C16.4661 3.31804 15.0485 1.90039 13.2995 1.90039ZM14.9461 5.32039H13.5528V6.71372C13.5528 6.78091 13.5261 6.84535 13.4786 6.89286C13.4311 6.94037 13.3667 6.96706 13.2995 6.96706C13.2323 6.96706 13.1679 6.94037 13.1203 6.89286C13.0728 6.84535 13.0461 6.78091 13.0461 6.71372V5.32039H11.6528C11.5856 5.32039 11.5212 5.2937 11.4737 5.24619C11.4262 5.19868 11.3995 5.13425 11.3995 5.06706C11.3995 4.99987 11.4262 4.93543 11.4737 4.88792C11.5212 4.84041 11.5856 4.81372 11.6528 4.81372H13.0461V3.42039C13.0461 3.3532 13.0728 3.28877 13.1203 3.24126C13.1679 3.19375 13.2323 3.16706 13.2995 3.16706C13.3667 3.16706 13.4311 3.19375 13.4786 3.24126C13.5261 3.28877 13.5528 3.3532 13.5528 3.42039V4.81372H14.9461C15.0133 4.81372 15.0778 4.84041 15.1253 4.88792C15.1728 4.93543 15.1995 4.99987 15.1995 5.06706C15.1995 5.13425 15.1728 5.19868 15.1253 5.24619C15.0778 5.2937 15.0133 5.32039 14.9461 5.32039Z" fill="#25282B"/>
</svg>
