<svg width="198" height="263" viewBox="0 0 198 263" fill="none" xmlns="http://www.w3.org/2000/svg">
<g clip-path="url(#clip0_561_293806)">
<path d="M175.606 243.582H153.426V243.749H175.606V243.582Z" fill="#EBEBEB"/>
<path d="M96.1272 245.4H90.3076V245.567H96.1272V245.4Z" fill="#EBEBEB"/>
<path d="M152.756 237.385H139.904V237.552H152.756V237.385Z" fill="#EBEBEB"/>
<path d="M71.9776 241.324H9.24121V241.491H71.9776V241.324Z" fill="#EBEBEB"/>
<path d="M149.769 203.044H20.4518C18.3423 203.044 16.6279 201.334 16.6279 199.23V17.9273C16.6279 15.8232 18.3423 14.1133 20.4518 14.1133H149.769C151.878 14.1133 153.593 15.8232 153.593 17.9273V199.23C153.593 201.334 151.878 203.044 149.769 203.044ZM20.4518 14.2803C18.4361 14.2803 16.7954 15.9168 16.7954 17.9273V199.23C16.7954 201.24 18.4361 202.877 20.4518 202.877H149.769C151.784 202.877 153.425 201.24 153.425 199.23V17.9273C153.425 15.9168 151.784 14.2803 149.769 14.2803H20.4518Z" fill="#EBEBEB"/>
<path d="M127.622 231.653C126.678 225.241 122.452 220.291 118.166 220.605C116.559 220.732 115.173 221.567 114.122 222.903C108.791 214.928 101.411 210.025 93.9706 210.566C90.1936 210.827 86.8318 212.476 84.0526 215.162C79.358 203.118 71.3687 194.582 63.761 194.582C59.4415 194.582 55.939 197.347 53.6353 201.956C47.5612 193.874 40.342 188.904 33.3505 188.904C22.2002 188.904 14.8805 201.522 14.2443 219.243C11.4383 222.583 1.2791 227.251 0 232.836H127.763C127.723 232.448 127.676 232.061 127.622 231.653Z" fill="#F0F0F0"/>
<path d="M189.582 221.125C188.062 221.252 186.729 222.234 185.698 223.811C180.936 214.466 174.152 208.728 167.147 209.363C163.578 209.67 160.357 211.614 157.678 214.753C157.665 214.773 157.665 214.753 157.665 214.753C153.64 200.666 146.394 190.687 139.235 190.687C135.163 190.687 131.788 193.92 129.484 199.31C124.033 189.839 117.403 184.027 110.82 184.027C102.663 184.027 96.4417 192.958 93.5352 206.698C90.7694 202.703 87.6085 200.345 84.4609 200.345C80.1013 200.345 76.7394 204.867 75.0183 211.941C74.6366 211.941 74.2482 211.975 73.8531 212.048C66.8548 213.23 61.6313 222.375 61.7652 232.828H197.993C197.029 225.928 193.406 220.778 189.575 221.119L189.582 221.125Z" fill="#F0F0F0"/>
<path d="M116.545 152.31C132.247 148.614 141.972 132.921 138.266 117.26C134.56 101.599 118.827 91.8998 103.125 95.5962C87.4232 99.2926 77.6986 114.985 81.4046 130.646C85.1105 146.307 100.844 156.007 116.545 152.31Z" fill="#F5F5F5"/>
<path d="M163.31 63.128C162.225 59.9018 158.75 57.7109 153.948 57.7109C147.713 57.7109 141.351 61.4114 138.82 66.2741C137.943 65.8733 136.871 65.6529 135.679 65.6529C131.426 65.6529 127.087 68.465 125.982 71.925C125.881 72.2456 125.808 72.5729 125.768 72.8802H167.636C168.139 72.1655 168.527 71.404 168.782 70.6158C169.987 66.8285 167.583 63.6958 163.317 63.1214L163.31 63.128Z" fill="#EBEBEB"/>
<path d="M5.31733 121.02C6.12096 118.629 8.69926 117.006 12.2553 117.006C16.8762 117.006 21.5908 119.744 23.4659 123.351C24.1155 123.058 24.9057 122.891 25.7964 122.891C28.9506 122.891 32.1651 124.975 32.9822 127.539C33.0558 127.78 33.1094 128.02 33.1429 128.248H2.11622C1.7412 127.72 1.45323 127.152 1.26572 126.571C0.375035 123.766 2.14971 121.441 5.31064 121.02H5.31733Z" fill="#F5F5F5"/>
<path d="M115.916 29.2559C117.751 27.3723 120.597 26.0898 123.403 26.0898C127.046 26.0898 129.384 28.254 129.055 31.0928C129.718 30.859 130.422 30.7321 131.125 30.7321C133.609 30.7321 135.096 32.3753 134.453 34.3992C134.393 34.5862 134.312 34.7799 134.225 34.9603H109.768C109.742 34.5461 109.795 34.0986 109.942 33.6377C110.646 31.4268 113.217 29.5966 115.923 29.2626L115.916 29.2559Z" fill="#F5F5F5"/>
<path d="M29.285 2.01722C30.457 0.814903 32.2718 0 34.0599 0C36.3837 0 37.8704 1.37598 37.6628 3.18614C38.0847 3.03919 38.5334 2.95235 38.9821 2.95235C40.5693 2.95235 41.5135 4.00104 41.105 5.29019C41.0648 5.41042 41.018 5.53065 40.9577 5.64421H25.3674C25.3473 5.37703 25.3874 5.09649 25.4812 4.80259C25.9299 3.3932 27.5706 2.22429 29.2917 2.01054L29.285 2.01722Z" fill="#F5F5F5"/>
<path d="M52.6378 76.8686C52.3297 76.8686 52.0216 76.8887 51.7203 76.9221C51.1109 74.2369 48.3986 72.36 44.5613 72.36C43.53 72.36 42.492 72.4935 41.4874 72.7407C40.503 69.3141 36.9202 66.9629 31.9176 66.9629C25.8167 66.9629 19.5953 70.463 16.8697 75.1386C13.1462 75.7398 9.67726 78.2981 8.69951 81.3506C8.59236 81.6779 8.52539 82.0052 8.47852 82.3191H57.5399L57.5533 82.2791C58.5042 79.2866 56.3009 76.8553 52.631 76.8553L52.6378 76.8686Z" fill="#EBEBEB"/>
<path d="M69.3594 165.371L72.9087 163.174L76.4849 166.079L75.8085 232.835H70.0157L69.3594 165.371Z" fill="#E6E6E6"/>
<path d="M54.8278 167.649L51.2784 163.174L47.709 166.079L48.3854 232.835H54.1715L54.8278 167.649Z" fill="#E6E6E6"/>
<path d="M33.1764 165.371L29.6271 163.174L26.0576 166.079L26.734 232.835H32.5201L33.1764 165.371Z" fill="#E6E6E6"/>
<path d="M4.40625 167.649L7.9556 163.174L11.525 166.079L10.8487 232.835H5.06254L4.40625 167.649Z" fill="#E6E6E6"/>
<path d="M155.971 165.371L159.52 163.174L163.089 166.079L162.42 232.835H156.627L155.971 165.371Z" fill="#E6E6E6"/>
<path d="M141.438 167.649L137.889 163.174L134.319 166.079L134.996 232.835H140.782L141.438 167.649Z" fill="#E6E6E6"/>
<path d="M119.787 165.371L116.237 163.174L112.668 166.079L113.338 232.835H119.13L119.787 165.371Z" fill="#E6E6E6"/>
<path d="M91.0107 167.649L94.5668 163.174L98.1362 166.079L97.4598 232.835H91.667L91.0107 167.649Z" fill="#E6E6E6"/>
<path d="M2.0957 183.02L169.498 183.1L169.337 180.909L2.1024 180.535L2.0957 183.02Z" fill="#E6E6E6"/>
<path d="M94.3393 262.999C137.003 262.999 171.588 259.614 171.588 255.438C171.588 251.262 137.003 247.877 94.3393 247.877C51.6762 247.877 17.0908 251.262 17.0908 255.438C17.0908 259.614 51.6762 262.999 94.3393 262.999Z" fill="#F5F5F5"/>
<path d="M95.7254 153.822H95.0557V165.772H95.7254V153.822Z" fill="#EC1944"/>
<path d="M95.7254 145.953H95.0557V149.961H95.7254V145.953Z" fill="#EC1944"/>
<path d="M91.151 36.416C89.9187 36.416 88.9209 37.4113 88.9209 38.6403V253.167C88.9209 253.768 89.4098 254.256 90.0125 254.256H92.2961C92.8989 254.256 93.3877 253.768 93.3877 253.167V38.647C93.3877 37.4179 92.3899 36.4227 91.1577 36.4227L91.151 36.416Z" fill="#EC1944"/>
<path opacity="0.2" d="M88.9141 63.7285V66.5673L91.1508 63.7285H88.9141Z" fill="black"/>
<path opacity="0.2" d="M93.3814 86.8672V89.706L91.1514 86.8672H93.3814Z" fill="black"/>
<path opacity="0.2" d="M93.3814 133.148V135.987L91.1514 133.148H93.3814Z" fill="black"/>
<path opacity="0.2" d="M88.9141 110.012V112.851L91.1508 110.012H88.9141Z" fill="black"/>
<path d="M91.1511 63.7283H44.0988L39.3574 54.5239L44.0988 45.3262H91.1511V63.7283Z" fill="#EC1944"/>
<path d="M44.9157 62.3924L40.8574 54.5239L44.9157 46.6621H89.8116V62.3924H44.9157Z" fill="white"/>
<path d="M91.1514 86.867H114.631L119.379 77.6692L114.631 68.4648H91.1514V86.867Z" fill="#EC1944"/>
<path d="M113.813 85.5311L117.871 77.6693L113.813 69.8008H92.4902V85.5311H113.813Z" fill="white"/>
<path d="M91.1511 110.01H57.2715L52.5234 100.806L57.2715 91.6016H91.1511V110.01Z" fill="#EC1944"/>
<path d="M58.0886 108.674L54.0303 100.806L58.0886 92.9375H89.8117V108.674H58.0886Z" fill="white"/>
<path d="M91.1514 133.149H123.785L128.533 123.945L123.785 114.74H91.1514V133.149Z" fill="#EC1944"/>
<path d="M122.968 131.813L127.026 123.945L122.968 116.076H92.4902V131.813H122.968Z" fill="white"/>
</g>
<defs>
<clipPath id="clip0_561_293806">
<rect width="198" height="263" fill="white"/>
</clipPath>
</defs>
</svg>
