<svg width="19" height="19" viewBox="0 0 19 19" fill="none" xmlns="http://www.w3.org/2000/svg">
<path d="M1.90345 9.4772C2.59695 11.0131 3.77804 12.677 5.14367 14.0427C6.60025 15.4992 8.20718 16.6528 9.66852 17.2902C10.4641 17.6375 11.1759 17.8111 11.7751 17.8111C12.3708 17.8111 12.8551 17.6391 13.1987 17.2952L14.5772 15.9172C14.9959 15.4981 14.9584 14.7789 14.4933 14.3137L12.4622 12.2823C11.9967 11.8173 11.2771 11.78 10.8586 12.1987L10.2262 12.8312C10.0509 12.9623 8.96765 12.6286 7.74904 11.41C6.52971 10.1909 6.19531 9.10694 6.32713 8.93332L6.9603 8.30015C7.37901 7.8812 7.34149 7.16157 6.87646 6.69655L4.84489 4.66545C4.37939 4.20042 3.66024 4.16266 3.24129 4.58185L1.86331 5.95983C1.17528 6.64762 1.18953 7.89687 1.90321 9.4772H1.90345ZM2.5352 6.63147L3.91341 5.2535C3.92291 5.244 3.94191 5.2383 3.96638 5.2383C4.02005 5.2383 4.10151 5.26514 4.17348 5.3371L6.20458 7.3682C6.30955 7.47318 6.31858 7.59834 6.28841 7.6285L5.65524 8.26144C4.86816 9.04899 5.7747 10.7792 7.07715 12.0816C7.72576 12.73 8.43898 13.2482 9.08545 13.5401C10.1495 14.0208 10.6774 13.7235 10.8971 13.5033L11.5303 12.8704C11.5607 12.84 11.6854 12.8492 11.7906 12.954L13.8214 14.9853C13.9264 15.0903 13.9354 15.2152 13.9053 15.2454L12.5271 16.6236C12.1447 17.0062 11.2182 16.93 10.0485 16.4193C8.69334 15.8282 7.18996 14.7454 5.81531 13.371C4.52759 12.0833 3.41751 10.5212 2.76914 9.08604C2.24521 7.92632 2.15758 7.00886 2.53496 6.63147H2.5352ZM17.645 10.53C17.645 5.37866 13.4538 1.1875 8.30241 1.1875V2.1375C12.9301 2.1375 16.695 5.90259 16.695 10.53H17.645Z" fill="#25282B"/>
<path d="M8.47852 3.7832V4.7332C11.7726 4.7332 14.4528 7.41315 14.4528 10.7073H15.4028C15.4028 6.88923 12.2963 3.7832 8.47852 3.7832Z" fill="#25282B"/>
<path d="M12.0341 10.707H12.9841C12.9841 8.22277 10.963 6.20117 8.47852 6.20117V7.15117C10.4391 7.15117 12.0341 8.74646 12.0341 10.707Z" fill="#25282B"/>
</svg>
