<svg width="16" height="17" viewBox="0 0 16 17" fill="none" xmlns="http://www.w3.org/2000/svg">
<path d="M11.0868 4.53977C11.7164 4.53977 12.2268 4.02937 12.2268 3.39977C12.2268 2.77016 11.7164 2.25977 11.0868 2.25977C10.4572 2.25977 9.94678 2.77016 9.94678 3.39977C9.94678 4.02937 10.4572 4.53977 11.0868 4.53977Z" stroke="#292D32" stroke-width="1.5" stroke-miterlimit="10" stroke-linecap="round" stroke-linejoin="round"/>
<path d="M3.80675 4.53977C4.43636 4.53977 4.94675 4.02937 4.94675 3.39977C4.94675 2.77016 4.43636 2.25977 3.80675 2.25977C3.17715 2.25977 2.66675 2.77016 2.66675 3.39977C2.66675 4.02937 3.17715 4.53977 3.80675 4.53977Z" stroke="#292D32" stroke-width="1.5" stroke-miterlimit="10" stroke-linecap="round" stroke-linejoin="round"/>
<path d="M11.0868 9.81906C11.7164 9.81906 12.2268 9.30867 12.2268 8.67906C12.2268 8.04946 11.7164 7.53906 11.0868 7.53906C10.4572 7.53906 9.94678 8.04946 9.94678 8.67906C9.94678 9.30867 10.4572 9.81906 11.0868 9.81906Z" stroke="#292D32" stroke-width="1.5" stroke-miterlimit="10" stroke-linecap="round" stroke-linejoin="round"/>
<path d="M3.80675 9.81906C4.43636 9.81906 4.94675 9.30867 4.94675 8.67906C4.94675 8.04946 4.43636 7.53906 3.80675 7.53906C3.17715 7.53906 2.66675 8.04946 2.66675 8.67906C2.66675 9.30867 3.17715 9.81906 3.80675 9.81906Z" stroke="#292D32" stroke-width="1.5" stroke-miterlimit="10" stroke-linecap="round" stroke-linejoin="round"/>
<path d="M11.0868 15.8191C11.7164 15.8191 12.2268 15.3087 12.2268 14.6791C12.2268 14.0495 11.7164 13.5391 11.0868 13.5391C10.4572 13.5391 9.94678 14.0495 9.94678 14.6791C9.94678 15.3087 10.4572 15.8191 11.0868 15.8191Z" stroke="#292D32" stroke-width="1.5" stroke-miterlimit="10" stroke-linecap="round" stroke-linejoin="round"/>
<path d="M3.80675 15.8191C4.43636 15.8191 4.94675 15.3087 4.94675 14.6791C4.94675 14.0495 4.43636 13.5391 3.80675 13.5391C3.17715 13.5391 2.66675 14.0495 2.66675 14.6791C2.66675 15.3087 3.17715 15.8191 3.80675 15.8191Z" stroke="#292D32" stroke-width="1.5" stroke-miterlimit="10" stroke-linecap="round" stroke-linejoin="round"/>
</svg>
