<svg width="22" height="22" viewBox="0 0 22 22" fill="none" xmlns="http://www.w3.org/2000/svg">
<g clip-path="url(#clip0_629_305528)">
<path d="M19.8 3.84922V9.62422C19.8 9.84302 19.713 10.0529 19.5583 10.2076C19.4036 10.3623 19.1938 10.4492 18.975 10.4492C18.7561 10.4492 18.5463 10.3623 18.3916 10.2076C18.2369 10.0529 18.15 9.84302 18.15 9.62422V5.40755L9.8532 13.7016C9.64655 13.9082 9.36628 14.0243 9.07403 14.0243C8.78179 14.0243 8.50151 13.9082 8.29487 13.7016C8.08822 13.4949 7.97213 13.2146 7.97213 12.9224C7.97213 12.6301 8.08822 12.3499 8.29487 12.1432L16.5916 3.84922H12.375C12.1561 3.84922 11.9463 3.7623 11.7916 3.60758C11.6369 3.45286 11.55 3.24302 11.55 3.02422C11.55 2.80541 11.6369 2.59557 11.7916 2.44086C11.9463 2.28614 12.1561 2.19922 12.375 2.19922H18.15C18.5872 2.20043 19.0062 2.37466 19.3153 2.68383C19.6245 2.993 19.7987 3.41198 19.8 3.84922ZM18.975 13.4742C18.7561 13.4742 18.5463 13.5611 18.3916 13.7159C18.2369 13.8706 18.15 14.0804 18.15 14.2992V18.1492H3.84995V3.84922H7.69995C7.91875 3.84922 8.1286 3.7623 8.28331 3.60758C8.43803 3.45286 8.52495 3.24302 8.52495 3.02422C8.52495 2.80541 8.43803 2.59557 8.28331 2.44086C8.1286 2.28614 7.91875 2.19922 7.69995 2.19922H3.84995C3.41272 2.20043 2.99373 2.37466 2.68456 2.68383C2.37539 2.993 2.20116 3.41198 2.19995 3.84922V18.1492C2.20116 18.5865 2.37539 19.0054 2.68456 19.3146C2.99373 19.6238 3.41272 19.798 3.84995 19.7992H18.15C18.5872 19.798 19.0062 19.6238 19.3153 19.3146C19.6245 19.0054 19.7987 18.5865 19.8 18.1492V14.2992C19.8 14.0804 19.713 13.8706 19.5583 13.7159C19.4036 13.5611 19.1938 13.4742 18.975 13.4742Z" fill="#EC1944"/>
</g>
<defs>
<clipPath id="clip0_629_305528">
<rect width="22" height="22" fill="white"/>
</clipPath>
</defs>
</svg>
