<svg width="16" height="16" viewBox="0 0 16 16" fill="none" xmlns="http://www.w3.org/2000/svg">
<g clip-path="url(#clip0_3021_37049)">
<path d="M2.33333 16.0007H12.3333C12.9531 15.9989 13.5469 15.7513 13.9844 15.3122C14.4218 14.8731 14.6672 14.2785 14.6667 13.6587V8.63398C14.6667 8.45717 14.5964 8.2876 14.4714 8.16258C14.3464 8.03756 14.1768 7.96732 14 7.96732C13.8232 7.96732 13.6536 8.03756 13.5286 8.16258C13.4036 8.2876 13.3333 8.45717 13.3333 8.63398V13.6587C13.3342 13.9249 13.2294 14.1807 13.0419 14.3698C12.8545 14.5589 12.5996 14.6659 12.3333 14.6673H2.33333C2.06705 14.6659 1.8122 14.5589 1.62472 14.3698C1.43724 14.1807 1.33245 13.9249 1.33333 13.6587V3.67598C1.33245 3.4097 1.43724 3.15394 1.62472 2.96483C1.8122 2.77573 2.06705 2.66873 2.33333 2.66732H7.33333C7.51015 2.66732 7.67971 2.59708 7.80474 2.47206C7.92976 2.34703 8 2.17746 8 2.00065C8 1.82384 7.92976 1.65427 7.80474 1.52925C7.67971 1.40422 7.51015 1.33398 7.33333 1.33398H2.33333C1.71354 1.33575 1.11976 1.58334 0.682306 2.02242C0.244854 2.46149 -0.000531394 3.05618 8.64072e-07 3.67598V13.6587C-0.000531394 14.2785 0.244854 14.8731 0.682306 15.3122C1.11976 15.7513 1.71354 15.9989 2.33333 16.0007Z" fill="#EC1944"/>
<path d="M6.303 7.02972L5.777 9.43906C5.75319 9.54834 5.75726 9.66186 5.78883 9.76915C5.8204 9.87645 5.87846 9.97408 5.95767 10.0531C6.03796 10.13 6.13562 10.1865 6.24239 10.2178C6.34916 10.249 6.46188 10.254 6.571 10.2324L8.975 9.70506C9.09982 9.67764 9.21414 9.61493 9.30433 9.52439L15.3803 3.44839C15.5661 3.26267 15.7134 3.04217 15.814 2.7995C15.9145 2.55683 15.9662 2.29673 15.9662 2.03406C15.9662 1.77138 15.9145 1.51128 15.814 1.26861C15.7134 1.02594 15.5661 0.805444 15.3803 0.619723C14.9995 0.255813 14.4931 0.0527344 13.9663 0.0527344C13.4396 0.0527344 12.9331 0.255813 12.5523 0.619723L6.48566 6.70172C6.39461 6.7913 6.33121 6.90515 6.303 7.02972ZM13.495 1.56306C13.6218 1.44155 13.7907 1.37372 13.9663 1.37372C14.142 1.37372 14.3108 1.44155 14.4377 1.56306C14.561 1.68881 14.6301 1.85792 14.6301 2.03406C14.6301 2.21019 14.561 2.3793 14.4377 2.50506L13.9663 2.97639L13.0237 2.03372L13.495 1.56306ZM7.56167 7.50572L12.0777 2.97839L13.011 3.91639L8.493 8.44506L7.29633 8.70772L7.56167 7.50572Z" fill="#EC1944"/>
</g>
<defs>
<clipPath id="clip0_3021_37049">
<rect width="16" height="16" fill="white"/>
</clipPath>
</defs>
</svg>
