<svg width="20" height="20" viewBox="0 0 20 20" fill="none" xmlns="http://www.w3.org/2000/svg">
<path d="M18.0251 12.2923C18.0251 13.034 17.8251 13.734 17.4584 14.334C16.7751 15.4757 15.5167 16.2507 14.0667 16.2507C13.2834 16.2507 12.5501 16.0173 11.9334 15.609C11.4167 15.2923 10.9917 14.8507 10.6834 14.334C10.3167 13.734 10.1084 13.034 10.1084 12.2923C10.1084 10.109 11.8834 8.33398 14.0667 8.33398C14.3667 8.33398 14.6584 8.36731 14.9334 8.43398C16.7084 8.82565 18.0251 10.409 18.0251 12.2923Z" stroke="white" stroke-width="1.5" stroke-miterlimit="10" stroke-linecap="round" stroke-linejoin="round"/>
<path d="M17.2416 3.34934V5.19934C17.2416 5.87434 16.8166 6.71602 16.4 7.14102L14.9333 8.43268C14.6583 8.36601 14.3666 8.33268 14.0666 8.33268C11.8833 8.33268 10.1083 10.1077 10.1083 12.291C10.1083 13.0327 10.3166 13.7327 10.6833 14.3327C10.9916 14.8494 11.4166 15.291 11.9333 15.6077V15.891C11.9333 16.3994 11.5999 17.0744 11.1749 17.3244L9.99997 18.0827C8.9083 18.7577 7.39163 17.9994 7.39163 16.6494V12.191C7.39163 11.5994 7.04997 10.841 6.71663 10.4244L3.51661 7.05768C3.09995 6.63268 2.7583 5.87436 2.7583 5.37436V3.43268C2.7583 2.42434 3.51665 1.66602 4.44165 1.66602H15.5583C16.4833 1.66602 17.2416 2.42434 17.2416 3.34934Z" stroke="white" stroke-width="1.5" stroke-miterlimit="10" stroke-linecap="round" stroke-linejoin="round"/>
</svg>
