<svg width="15" height="18" viewBox="0 0 15 18" fill="none" xmlns="http://www.w3.org/2000/svg">
<path d="M14 5V13C14 16.2 13.1875 17 9.9375 17H5.0625C1.8125 17 1 16.2 1 13V5C1 1.8 1.8125 1 5.0625 1H9.9375C13.1875 1 14 1.8 14 5Z" stroke="#606060" stroke-linecap="round" stroke-linejoin="round"/>
<path d="M9.125 3.79999H5.875" stroke="#606060" stroke-linecap="round" stroke-linejoin="round"/>
<path d="M7.49998 14.68C8.19551 14.68 8.75935 14.1248 8.75935 13.44C8.75935 12.7552 8.19551 12.2 7.49998 12.2C6.80444 12.2 6.2406 12.7552 6.2406 13.44C6.2406 14.1248 6.80444 14.68 7.49998 14.68Z" stroke="#606060" stroke-linecap="round" stroke-linejoin="round"/>
</svg>
