<svg width="16" height="20" viewBox="0 0 16 20" fill="none" xmlns="http://www.w3.org/2000/svg">
<path d="M4 8.33329V6.66663C4 3.90829 4.66667 1.66663 8 1.66663C11.3333 1.66663 12 3.90829 12 6.66663V8.33329" stroke="black" stroke-width="1.5" stroke-linecap="round" stroke-linejoin="round"/>
<path d="M8.00016 15.4167C8.92064 15.4167 9.66683 14.4839 9.66683 13.3333C9.66683 12.1827 8.92064 11.25 8.00016 11.25C7.07969 11.25 6.3335 12.1827 6.3335 13.3333C6.3335 14.4839 7.07969 15.4167 8.00016 15.4167Z" stroke="black" stroke-width="1.5" stroke-linecap="round" stroke-linejoin="round"/>
<path d="M11.3335 18.3334H4.66683C2.00016 18.3334 1.3335 17.5 1.3335 14.1667V12.5C1.3335 9.16671 2.00016 8.33337 4.66683 8.33337H11.3335C14.0002 8.33337 14.6668 9.16671 14.6668 12.5V14.1667C14.6668 17.5 14.0002 18.3334 11.3335 18.3334Z" stroke="black" stroke-width="1.5" stroke-linecap="round" stroke-linejoin="round"/>
</svg>
