<svg width="20" height="20" viewBox="0 0 20 20" fill="none" xmlns="http://www.w3.org/2000/svg">
<path d="M15.9543 9.26165C15.8931 9.20046 15.8931 9.13926 15.8319 9.07807L13.996 7.24218C13.7512 6.9974 13.384 6.9974 13.1392 7.24218C12.8945 7.48697 12.8945 7.85414 13.1392 8.09893L13.9348 8.89448H11.1198C10.7526 8.89448 10.5078 9.13926 10.5078 9.50644C10.5078 9.87361 10.7526 10.1184 11.1198 10.1184H13.9348L13.1392 10.9139C12.8945 11.1587 12.8945 11.5259 13.1392 11.7707C13.2616 11.8931 13.4452 11.9543 13.5676 11.9543C13.69 11.9543 13.8736 11.8931 13.996 11.7707L15.8319 9.93481C15.8931 9.87361 15.9543 9.81242 15.9543 9.75122C16.0155 9.56763 16.0155 9.44524 15.9543 9.26165Z" fill="#EC1944"/>
<path d="M12.6495 13.2406C11.9764 13.6078 11.242 13.7914 10.5076 13.7914C8.121 13.7914 6.22392 11.8943 6.22392 9.50765C6.22392 7.121 8.121 5.22392 10.5076 5.22392C11.242 5.22392 11.9764 5.40751 12.6495 5.77469C12.9555 5.95828 13.3227 5.83588 13.5063 5.5299C13.6898 5.22392 13.5675 4.85675 13.2615 4.67316C12.4047 4.24478 11.4868 4 10.5076 4C7.44784 4 5 6.44784 5 9.50765C5 12.5675 7.44784 15.0153 10.5076 15.0153C11.4868 15.0153 12.4047 14.7705 13.2615 14.2809C13.5675 14.0974 13.6287 13.7302 13.5063 13.4242C13.3227 13.1794 12.9555 13.057 12.6495 13.2406Z" fill="#EC1944"/>
</svg>
