<svg width="30" height="30" viewBox="0 0 30 30" fill="none" xmlns="http://www.w3.org/2000/svg">
<circle cx="15" cy="15" r="15" fill="#F5F8FF"/>
<path d="M15.0149 8.18262C12.5324 8.18262 10.5149 10.2001 10.5149 12.6826V14.8501C10.5149 15.3076 10.3199 16.0051 10.0874 16.3951L9.22494 17.8276C8.69244 18.7126 9.05994 19.6951 10.0349 20.0251C13.2674 21.1051 16.7549 21.1051 19.9874 20.0251C20.8949 19.7251 21.2924 18.6526 20.7974 17.8276L19.9349 16.3951C19.7099 16.0051 19.5149 15.3076 19.5149 14.8501V12.6826C19.5149 10.2076 17.4899 8.18262 15.0149 8.18262Z" stroke="#292D32" stroke-width="1.5" stroke-miterlimit="10" stroke-linecap="round"/>
<path d="M16.4024 8.40008C16.1699 8.33258 15.9299 8.28008 15.6824 8.25008C14.9624 8.16008 14.2724 8.21258 13.6274 8.40008C13.8449 7.84508 14.3849 7.45508 15.0149 7.45508C15.6449 7.45508 16.1849 7.84508 16.4024 8.40008Z" stroke="#292D32" stroke-width="1.5" stroke-miterlimit="10" stroke-linecap="round" stroke-linejoin="round"/>
<path d="M17.2651 20.2949C17.2651 21.5324 16.2526 22.5449 15.0151 22.5449C14.4001 22.5449 13.8301 22.2899 13.4251 21.8849C13.0201 21.4799 12.7651 20.9099 12.7651 20.2949" stroke="#292D32" stroke-width="1.5" stroke-miterlimit="10"/>
<circle cx="20" cy="11" r="3" fill="#EC1944"/>
</svg>
