<svg width="12" height="11" viewBox="0 0 12 11" fill="none" xmlns="http://www.w3.org/2000/svg">
<path d="M7.18296 10.3523L12 5.52464L7.18296 0.696984C7.13945 0.640025 7.08418 0.59305 7.02089 0.559239C6.95759 0.525429 6.88775 0.505573 6.81608 0.501014C6.74442 0.496455 6.67261 0.507301 6.60552 0.532817C6.53843 0.558333 6.47762 0.597924 6.42721 0.648908C6.37679 0.699893 6.33796 0.761082 6.31333 0.828332C6.28869 0.895582 6.27884 0.967323 6.28444 1.0387C6.29003 1.11008 6.31095 1.17942 6.34576 1.24204C6.38057 1.30466 6.42847 1.35908 6.48622 1.40164L10.0902 5.02488L0.501253 5.02488C0.368313 5.02488 0.240817 5.07753 0.146814 5.17126C0.0528105 5.26498 -1.91313e-07 5.39209 -1.96496e-07 5.52464C-2.0168e-07 5.65718 0.0528105 5.7843 0.146814 5.87802C0.240817 5.97174 0.368313 6.02439 0.501253 6.02439L10.0902 6.02439L6.48622 9.64763C6.39249 9.74174 6.3401 9.86911 6.34057 10.0017C6.34104 10.1343 6.39433 10.2613 6.48872 10.3548C6.58311 10.4482 6.71086 10.5005 6.84388 10.5C6.97689 10.4995 7.10427 10.4464 7.19799 10.3523L7.18296 10.3523Z" fill="white"/>
</svg>
