<svg width="47" height="47" viewBox="0 0 47 47" fill="none" xmlns="http://www.w3.org/2000/svg">
<circle cx="23.5" cy="23.5" r="23.5" fill="#EC1944"/>
<path d="M29.7854 27.0632L15.1875 27.0632L15.1875 28.2507L29.7854 28.2507L27.4401 30.596L28.2797 31.4355L31.6385 28.0767C31.7498 27.9654 31.8124 27.8144 31.8124 27.6569C31.8124 27.4995 31.7498 27.3485 31.6385 27.2371L28.2797 23.8783L27.4401 24.7179L29.7854 27.0632ZM18.7203 15.5658L15.3615 18.9246C15.2502 19.036 15.1876 19.187 15.1876 19.3444C15.1876 19.5019 15.2502 19.6529 15.3615 19.7642L18.7203 23.123L19.5599 22.2835L17.2146 19.9382L31.8125 19.9382L31.8125 18.7507L17.2146 18.7507L19.5599 16.4054L18.7203 15.5658Z" fill="white"/>
</svg>
