<svg width="18" height="18" viewBox="0 0 18 18" fill="none" xmlns="http://www.w3.org/2000/svg">
<g clip-path="url(#clip0_154_10923)">
<path d="M16.3125 6.1875H1.6875C1.06706 6.1875 0.5625 5.68294 0.5625 5.0625V1.6875C0.5625 1.06706 1.06706 0.5625 1.6875 0.5625H16.3125C16.9329 0.5625 17.4375 1.06706 17.4375 1.6875V5.0625C17.4375 5.68294 16.9329 6.1875 16.3125 6.1875ZM1.6875 1.6875V5.0625H16.3131L16.3125 1.6875H1.6875Z" fill="#606060"/>
<path d="M7.3125 3.9375H3.375C3.22582 3.9375 3.08274 3.87824 2.97725 3.77275C2.87176 3.66726 2.8125 3.52418 2.8125 3.375C2.8125 3.22582 2.87176 3.08274 2.97725 2.97725C3.08274 2.87176 3.22582 2.8125 3.375 2.8125H7.3125C7.46168 2.8125 7.60476 2.87176 7.71025 2.97725C7.81574 3.08274 7.875 3.22582 7.875 3.375C7.875 3.52418 7.81574 3.66726 7.71025 3.77275C7.60476 3.87824 7.46168 3.9375 7.3125 3.9375ZM14.625 3.9375C14.4788 3.9375 14.3325 3.87563 14.2256 3.77438C14.1244 3.6675 14.0625 3.52125 14.0625 3.375C14.0625 3.22875 14.1244 3.0825 14.2256 2.97562C14.4394 2.7675 14.8162 2.7675 15.0244 2.97562C15.1256 3.0825 15.1875 3.22875 15.1875 3.375C15.1875 3.41438 15.1819 3.44812 15.1762 3.4875C15.1706 3.52125 15.1594 3.555 15.1425 3.58875C15.1313 3.6225 15.1144 3.65625 15.0919 3.68438C15.0694 3.71813 15.0469 3.74625 15.0244 3.77438C14.9175 3.87563 14.7769 3.9375 14.625 3.9375ZM12.375 3.9375C12.2288 3.9375 12.0825 3.87563 11.9756 3.77438C11.8744 3.6675 11.8125 3.52125 11.8125 3.375C11.8125 3.22875 11.8744 3.0825 11.9756 2.97562C12.1838 2.7675 12.5606 2.7675 12.7744 2.97562C12.8756 3.0825 12.9375 3.22875 12.9375 3.375C12.9375 3.52125 12.8756 3.6675 12.7744 3.77438C12.7462 3.79688 12.7181 3.81937 12.6844 3.84187C12.6562 3.86437 12.6225 3.88125 12.5887 3.8925C12.555 3.90938 12.5213 3.92062 12.4875 3.92625C12.4481 3.93187 12.4144 3.9375 12.375 3.9375ZM16.3125 12.9375H1.6875C1.06706 12.9375 0.5625 12.4329 0.5625 11.8125V8.4375C0.5625 7.81706 1.06706 7.3125 1.6875 7.3125H16.3125C16.9329 7.3125 17.4375 7.81706 17.4375 8.4375V11.8125C17.4375 12.4329 16.9329 12.9375 16.3125 12.9375ZM1.6875 8.4375V11.8125H16.3131L16.3125 8.4375H1.6875Z" fill="#606060"/>
<path d="M7.3125 10.6875H3.375C3.22582 10.6875 3.08274 10.6282 2.97725 10.5228C2.87176 10.4173 2.8125 10.2742 2.8125 10.125C2.8125 9.97582 2.87176 9.83275 2.97725 9.72726C3.08274 9.62177 3.22582 9.56251 3.375 9.56251H7.3125C7.46168 9.56251 7.60476 9.62177 7.71025 9.72726C7.81574 9.83275 7.875 9.97582 7.875 10.125C7.875 10.2742 7.81574 10.4173 7.71025 10.5228C7.60476 10.6282 7.46168 10.6875 7.3125 10.6875ZM14.625 10.6875C14.4788 10.6875 14.3325 10.6256 14.2256 10.5244C14.1244 10.4175 14.0625 10.2713 14.0625 10.125C14.0625 9.97876 14.1244 9.83251 14.2256 9.72563C14.4394 9.51751 14.8162 9.51751 15.0244 9.72563C15.1256 9.83251 15.1875 9.97876 15.1875 10.125C15.1875 10.1644 15.1819 10.1981 15.1762 10.2375C15.1706 10.2713 15.1594 10.305 15.1425 10.3388C15.1313 10.3725 15.1144 10.4063 15.0919 10.4344C15.0694 10.4681 15.0469 10.4963 15.0244 10.5244C14.9175 10.6256 14.7769 10.6875 14.625 10.6875ZM12.375 10.6875C12.2288 10.6875 12.0825 10.6256 11.9756 10.5244C11.8744 10.4175 11.8125 10.2713 11.8125 10.125C11.8125 10.0519 11.8294 9.97876 11.8575 9.91126C11.8856 9.84376 11.925 9.78188 11.9756 9.72563C12.1106 9.59626 12.3019 9.53438 12.4875 9.57376C12.5213 9.57938 12.555 9.59063 12.5887 9.60751C12.6225 9.61876 12.6562 9.63563 12.6844 9.65813C12.7181 9.68063 12.7462 9.70313 12.7744 9.72563C12.825 9.78188 12.8644 9.84376 12.8925 9.91126C12.9263 9.97876 12.9375 10.0519 12.9375 10.125C12.9375 10.2713 12.8756 10.4175 12.7744 10.5244C12.6675 10.6256 12.5212 10.6875 12.375 10.6875ZM9 17.4375C8.85082 17.4375 8.70774 17.3782 8.60225 17.2728C8.49676 17.1673 8.4375 17.0242 8.4375 16.875V14.625C8.4375 14.4758 8.49676 14.3327 8.60225 14.2273C8.70774 14.1218 8.85082 14.0625 9 14.0625C9.14918 14.0625 9.29226 14.1218 9.39775 14.2273C9.50324 14.3327 9.5625 14.4758 9.5625 14.625V16.875C9.5625 17.0242 9.50324 17.1673 9.39775 17.2728C9.29226 17.3782 9.14918 17.4375 9 17.4375Z" fill="#606060"/>
<path d="M13.5 17.4375H4.5C4.35082 17.4375 4.20774 17.3782 4.10225 17.2727C3.99676 17.1673 3.9375 17.0242 3.9375 16.875C3.9375 16.7258 3.99676 16.5827 4.10225 16.4773C4.20774 16.3718 4.35082 16.3125 4.5 16.3125H13.5C13.6492 16.3125 13.7923 16.3718 13.8977 16.4773C14.0032 16.5827 14.0625 16.7258 14.0625 16.875C14.0625 17.0242 14.0032 17.1673 13.8977 17.2727C13.7923 17.3782 13.6492 17.4375 13.5 17.4375Z" fill="#606060"/>
</g>
<defs>
<clipPath id="clip0_154_10923">
<rect width="18" height="18" fill="white"/>
</clipPath>
</defs>
</svg>
