<svg width="20" height="20" viewBox="0 0 20 20" fill="none" xmlns="http://www.w3.org/2000/svg">
<path fill-rule="evenodd" clip-rule="evenodd" d="M14.375 2.5H10.625V1.875C10.625 1.53 10.345 1.25 10 1.25C9.655 1.25 9.375 1.53 9.375 1.875V2.5H5.625V1.875C5.625 1.53 5.345 1.25 5 1.25C4.655 1.25 4.375 1.53 4.375 1.875V2.5H3.125C2.09 2.5 1.25 3.34 1.25 4.375V16.875C1.25 17.91 2.09 18.75 3.125 18.75H16.875C17.91 18.75 18.75 17.91 18.75 16.875V4.375C18.75 3.34 17.91 2.5 16.875 2.5H15.625V1.875C15.625 1.53 15.345 1.25 15 1.25C14.655 1.25 14.375 1.53 14.375 1.875V2.5ZM17.5 7.5V16.875C17.5 17.22 17.22 17.5 16.875 17.5H3.125C2.78 17.5 2.5 17.22 2.5 16.875V7.5H17.5ZM15.625 3.75H14.375V4.375C14.375 4.72 14.655 5 15 5C15.345 5 15.625 4.72 15.625 4.375V3.75ZM10.625 3.75H9.375V4.375C9.375 4.72 9.655 5 10 5C10.345 5 10.625 4.72 10.625 4.375V3.75ZM5.625 3.75H4.375V4.375C4.375 4.72 4.655 5 5 5C5.345 5 5.625 4.72 5.625 4.375V3.75Z" fill="#3A96EB"/>
<path d="M13.1818 10.625L11.3636 12.5H12.7273C12.7273 14.0539 11.5068 15.3125 10 15.3125C9.53864 15.3125 9.10682 15.193 8.725 14.9867L8.06136 15.6711C8.625 16.0344 9.28636 16.25 10 16.25C12.0091 16.25 13.6364 14.5719 13.6364 12.5H15L13.1818 10.625ZM7.27273 12.5C7.27273 10.9461 8.49318 9.6875 10 9.6875C10.4614 9.6875 10.8932 9.80703 11.275 10.0133L11.9386 9.32891C11.375 8.96563 10.7136 8.75 10 8.75C7.99091 8.75 6.36364 10.4281 6.36364 12.5H5L6.81818 14.375L8.63636 12.5H7.27273Z" fill="#3A96EB"/>
</svg>
