<svg width="19" height="19" viewBox="0 0 19 19" fill="none" xmlns="http://www.w3.org/2000/svg">
<path d="M8.01562 16.3281C7.97664 16.3281 7.93803 16.3205 7.90201 16.3055C7.86599 16.2906 7.83326 16.2687 7.8057 16.2412C7.77813 16.2136 7.75626 16.1809 7.74134 16.1449C7.72642 16.1088 7.71875 16.0702 7.71875 16.0312V9.20312C7.71874 9.16414 7.72641 9.12553 7.74133 9.0895C7.75624 9.05348 7.77811 9.02075 7.80568 8.99318C7.83325 8.96561 7.86598 8.94374 7.902 8.92883C7.93803 8.91391 7.97664 8.90624 8.01562 8.90625H14.8438C14.8827 8.90624 14.9213 8.91391 14.9574 8.92883C14.9934 8.94374 15.0261 8.96561 15.0537 8.99318C15.0813 9.02075 15.1031 9.05348 15.118 9.0895C15.133 9.12553 15.1406 9.16414 15.1406 9.20312V14.25C15.1406 14.289 15.133 14.3276 15.118 14.3636C15.1031 14.3996 15.0813 14.4324 15.0537 14.4599C15.0261 14.4875 14.9934 14.5094 14.9574 14.5243C14.9213 14.5392 14.8827 14.5469 14.8438 14.5469H10.7614L8.18087 16.2778C8.13201 16.3106 8.07448 16.3282 8.01562 16.3281ZM8.3125 9.5V15.4746L10.5057 14.0034C10.5546 13.9706 10.6121 13.9531 10.671 13.9531H14.5469V9.5H8.3125Z" fill="#25282B"/>
<path d="M17.5166 17.8108C17.4576 17.8108 17.4 17.7933 17.351 17.7605L14.7719 16.0296H10.6884C10.6494 16.0296 10.6108 16.0219 10.5748 16.007C10.5388 15.9921 10.5061 15.9702 10.4785 15.9427C10.4509 15.9151 10.429 15.8824 10.4141 15.8463C10.3992 15.8103 10.3915 15.7717 10.3916 15.7327V15.6673C10.3916 15.6114 10.4074 15.5566 10.4372 15.5092C10.467 15.4618 10.5096 15.4239 10.5601 15.3997C10.6105 15.3755 10.6668 15.366 10.7224 15.3724C10.778 15.3788 10.8306 15.4008 10.8743 15.4358H14.8624C14.9213 15.4359 14.9789 15.4534 15.0279 15.4861L17.2197 16.9572V10.9827H16.0322C15.9534 10.9827 15.8779 10.9514 15.8223 10.8958C15.7666 10.8401 15.7353 10.7646 15.7353 10.6858C15.7353 10.6071 15.7666 10.5316 15.8223 10.4759C15.8779 10.4202 15.9534 10.389 16.0322 10.389H17.5166C17.5555 10.389 17.5942 10.3966 17.6302 10.4115C17.6662 10.4265 17.6989 10.4483 17.7265 10.4759C17.7541 10.5035 17.7759 10.5362 17.7909 10.5722C17.8058 10.6082 17.8134 10.6469 17.8134 10.6858V17.514C17.8134 17.553 17.8058 17.5916 17.7908 17.6276C17.7759 17.6636 17.754 17.6963 17.7265 17.7239C17.6989 17.7515 17.6662 17.7733 17.6302 17.7883C17.5941 17.8032 17.5555 17.8108 17.5166 17.8108ZM6.46463 16.3575C6.17768 16.3571 5.89696 16.2738 5.65613 16.1178C5.41531 15.9618 5.22462 15.7396 5.10695 15.4779L1.35368 7.07218C1.27417 6.89427 1.2305 6.70243 1.22517 6.50764C1.21983 6.31284 1.25294 6.1189 1.32259 5.93691C1.39224 5.75491 1.49708 5.58843 1.6311 5.44697C1.76513 5.30551 1.92572 5.19185 2.1037 5.11248L8.09137 2.43771C8.16323 2.40577 8.24483 2.40363 8.31826 2.43178C8.39169 2.45993 8.45095 2.51606 8.48305 2.58785C8.51515 2.65965 8.51745 2.74124 8.48946 2.81473C8.46147 2.88822 8.40546 2.9476 8.33374 2.97985L2.34578 5.65477C2.23903 5.70233 2.14271 5.77045 2.06232 5.85526C1.98192 5.94007 1.91903 6.03989 1.87724 6.14902C1.83545 6.25815 1.81558 6.37445 1.81877 6.49126C1.82196 6.60808 1.84815 6.72312 1.89583 6.8298L5.64851 15.2346C5.7387 15.4353 5.89958 15.5957 6.10047 15.6853C6.30136 15.7749 6.52821 15.7874 6.73773 15.7204C6.77483 15.7084 6.81393 15.7038 6.8528 15.7069C6.89167 15.7101 6.92954 15.7208 6.96425 15.7386C6.99897 15.7563 7.02985 15.7807 7.05512 15.8104C7.0804 15.8401 7.09959 15.8745 7.11158 15.9116C7.12357 15.9487 7.12814 15.9878 7.12502 16.0267C7.1219 16.0655 7.11116 16.1034 7.09341 16.1381C7.07565 16.1728 7.05123 16.2037 7.02154 16.229C6.99186 16.2543 6.95748 16.2734 6.92038 16.2854C6.77315 16.3331 6.61937 16.3574 6.46463 16.3575Z" fill="#25282B"/>
<path d="M4.96874 6.73051C4.90073 6.73054 4.83478 6.70723 4.78189 6.66448C4.729 6.62172 4.69239 6.56211 4.67817 6.49561C4.66395 6.42911 4.67298 6.35974 4.70376 6.29909C4.73454 6.23845 4.78519 6.1902 4.84726 6.16242L7.28691 5.07247C7.35878 5.04053 7.44037 5.0384 7.51381 5.06655C7.58724 5.0947 7.6465 5.15082 7.6786 5.22262C7.71069 5.29441 7.713 5.376 7.68501 5.4495C7.65701 5.52299 7.60101 5.58237 7.52929 5.61462L5.08963 6.70456C5.0516 6.72159 5.01041 6.73043 4.96874 6.73051ZM4.88118 8.72108C4.81317 8.72113 4.7472 8.69783 4.6943 8.65508C4.6414 8.61232 4.60477 8.55271 4.59055 8.48619C4.57633 8.41968 4.58537 8.3503 4.61616 8.28965C4.64695 8.229 4.69762 8.18076 4.75971 8.15299L6.77231 7.25352C6.80792 7.23751 6.84634 7.22868 6.88537 7.22753C6.9244 7.22639 6.96327 7.23295 6.99976 7.24685C7.03625 7.26075 7.06964 7.28171 7.09802 7.30853C7.1264 7.33535 7.14921 7.3675 7.16514 7.40315C7.18108 7.43879 7.18983 7.47723 7.19089 7.51626C7.19195 7.5553 7.1853 7.59415 7.17133 7.63061C7.15735 7.66707 7.13632 7.70042 7.10944 7.72874C7.08256 7.75706 7.05036 7.7798 7.01468 7.79566L5.00208 8.69514C4.96404 8.71217 4.92286 8.721 4.88118 8.72108ZM5.6083 10.3451C5.54028 10.345 5.47432 10.3217 5.42145 10.2789C5.36858 10.2361 5.33199 10.1765 5.31781 10.11C5.30362 10.0434 5.31269 9.97407 5.34351 9.91343C5.37432 9.85279 5.42501 9.80457 5.48711 9.77681L6.16695 9.474C6.23884 9.44221 6.3204 9.44022 6.39375 9.46846C6.46711 9.49671 6.52627 9.55288 6.55827 9.62468C6.59028 9.69647 6.59251 9.77802 6.56448 9.85146C6.53645 9.9249 6.48044 9.98422 6.40874 10.0164L5.7289 10.3192C5.69094 10.3362 5.64986 10.345 5.6083 10.3451Z" fill="#25282B"/>
<path d="M6.82899 13.0174C6.80164 13.0174 6.77442 13.0136 6.74811 13.0061L6.63243 12.9735C6.25377 12.8689 5.932 12.6185 5.73758 12.2771C5.54315 11.9357 5.49192 11.5312 5.59511 11.1522L8.02403 2.27479C8.12916 1.89549 8.37997 1.57312 8.72177 1.37794C9.06357 1.18276 9.46867 1.1306 9.84876 1.23282L16.7189 3.11511C16.9071 3.16612 17.0834 3.25375 17.2376 3.37297C17.3919 3.4922 17.5212 3.64068 17.618 3.80992C17.7148 3.97915 17.7773 4.16582 17.8018 4.35924C17.8264 4.55266 17.8126 4.74902 17.7612 4.93709L16.4905 9.57766C16.4802 9.61528 16.4626 9.6505 16.4387 9.68131C16.4147 9.71212 16.385 9.73792 16.3511 9.75723C16.3172 9.77655 16.2799 9.789 16.2412 9.79388C16.2025 9.79876 16.1632 9.79598 16.1256 9.78568C16.088 9.77538 16.0528 9.75777 16.022 9.73386C15.9912 9.70995 15.9654 9.68021 15.946 9.64633C15.9267 9.61245 15.9143 9.5751 15.9094 9.5364C15.9045 9.49771 15.9073 9.45843 15.9176 9.42082L17.1883 4.78071C17.2192 4.66788 17.2275 4.55006 17.2128 4.434C17.1981 4.31795 17.1605 4.20595 17.1024 4.10442C17.0443 4.0029 16.9667 3.91386 16.8741 3.8424C16.7814 3.77094 16.6756 3.71847 16.5627 3.68801L9.69221 1.80557C9.46377 1.74452 9.22046 1.77616 9.01522 1.8936C8.80999 2.01104 8.65944 2.20478 8.59632 2.43266L6.16798 11.3085C6.10599 11.536 6.13678 11.7788 6.25357 11.9837C6.37037 12.1886 6.56364 12.3387 6.79101 12.4013L6.90929 12.4346C6.97829 12.4541 7.03793 12.4979 7.07718 12.5578C7.11644 12.6178 7.13268 12.69 7.12289 12.761C7.11311 12.832 7.07796 12.8971 7.02394 12.9442C6.96992 12.9913 6.90068 13.0173 6.82899 13.0174Z" fill="#25282B"/>
<path d="M14.0894 5.15466C14.0629 5.15466 14.0364 5.15105 14.0109 5.14394L11.4338 4.43856C11.3962 4.42828 11.361 4.4107 11.3302 4.38681C11.2994 4.36293 11.2736 4.33321 11.2543 4.29936C11.235 4.26551 11.2225 4.22818 11.2176 4.18951C11.2127 4.15084 11.2155 4.11159 11.2258 4.07399C11.236 4.0364 11.2536 4.00119 11.2775 3.97039C11.3014 3.93959 11.3311 3.9138 11.365 3.89448C11.3988 3.87516 11.4362 3.8627 11.4748 3.85781C11.5135 3.85292 11.5527 3.8557 11.5903 3.86598L14.1674 4.57135C14.2368 4.59029 14.2969 4.63375 14.3366 4.69366C14.3763 4.75357 14.393 4.82586 14.3835 4.89711C14.3739 4.96836 14.3389 5.03374 14.2848 5.0811C14.2307 5.12847 14.1613 5.15461 14.0894 5.15466ZM14.4782 7.10783C14.4516 7.10783 14.4252 7.10422 14.3996 7.09711L10.1045 5.92148C10.0669 5.9112 10.0317 5.89362 10.0009 5.86973C9.97011 5.84585 9.94432 5.81613 9.925 5.78228C9.90568 5.74843 9.89322 5.7111 9.88833 5.67243C9.88344 5.63376 9.88622 5.59451 9.8965 5.55691C9.90678 5.51932 9.92436 5.48411 9.94825 5.45331C9.97213 5.42251 10.0018 5.39672 10.0357 5.3774C10.0696 5.35808 10.1069 5.34563 10.1456 5.34073C10.1842 5.33584 10.2235 5.33862 10.2611 5.3489L14.5562 6.52452C14.6255 6.54346 14.6857 6.58692 14.7254 6.64683C14.7651 6.70674 14.7818 6.77902 14.7722 6.85028C14.7627 6.92153 14.7277 6.98691 14.6736 7.03427C14.6195 7.08164 14.5501 7.10778 14.4782 7.10783ZM12.1316 8.31244C12.1051 8.31244 12.0786 8.30883 12.053 8.30171L9.6334 7.63968C9.5957 7.62949 9.56039 7.61196 9.52948 7.5881C9.49858 7.56424 9.47268 7.53451 9.45328 7.50062C9.43388 7.46673 9.42136 7.42935 9.41643 7.39062C9.41151 7.35188 9.41427 7.31256 9.42457 7.27489C9.43487 7.23723 9.4525 7.20196 9.47645 7.17112C9.5004 7.14028 9.5302 7.11447 9.56414 7.09517C9.59808 7.07586 9.6355 7.06345 9.67425 7.05863C9.713 7.05381 9.75232 7.05669 9.78995 7.06709L12.2096 7.72913C12.2789 7.74807 12.3391 7.79153 12.3788 7.85144C12.4185 7.91135 12.4352 7.98363 12.4256 8.05488C12.4161 8.12613 12.3811 8.1915 12.327 8.23886C12.2729 8.28623 12.2035 8.31237 12.1316 8.31244Z" fill="#25282B"/>
</svg>
