<svg width="21" height="22" viewBox="0 0 21 22" fill="none" xmlns="http://www.w3.org/2000/svg">
<path d="M15.1484 9.0466H13.3417L9.33701 3.60455L9.29788 0.000414689C9.29788 0.000414689 6.50635 -0.136449 6.88464 4.56262C7.26294 9.26168 6.88464 8.07551 6.88464 8.07551C6.88464 8.07551 0.962392 8.16675 0.47322 8.68814C0.121016 9.06615 0.0231811 14.9514 0.00361419 18.1384C-0.0321764 18.9201 0.198702 19.6908 0.658451 20.3242C1.1182 20.9577 1.77957 21.4164 2.53427 21.6252C2.74772 21.6775 2.96672 21.7038 3.1865 21.7034C4.66706 21.7034 12.2003 20.4 12.2003 20.4L15.3245 20.3609L15.1484 9.0466Z" fill="#6771A4"/>
<path d="M20.301 8.00391L19.3292 20.3544L16.2376 20.387L16.1006 8.29719L20.301 8.00391Z" fill="#6771A4"/>
</svg>
