<svg width="16" height="16" viewBox="0 0 16 16" fill="none" xmlns="http://www.w3.org/2000/svg">
<path d="M8.00016 8.66683C8.36835 8.66683 8.66683 8.36835 8.66683 8.00016C8.66683 7.63197 8.36835 7.3335 8.00016 7.3335C7.63197 7.3335 7.3335 7.63197 7.3335 8.00016C7.3335 8.36835 7.63197 8.66683 8.00016 8.66683Z" stroke="#25282B" stroke-width="1.5" stroke-linecap="round" stroke-linejoin="round"/>
<path d="M8.00016 3.99984C8.36835 3.99984 8.66683 3.70136 8.66683 3.33317C8.66683 2.96498 8.36835 2.6665 8.00016 2.6665C7.63197 2.6665 7.3335 2.96498 7.3335 3.33317C7.3335 3.70136 7.63197 3.99984 8.00016 3.99984Z" stroke="#25282B" stroke-width="1.5" stroke-linecap="round" stroke-linejoin="round"/>
<path d="M8.00016 13.3333C8.36835 13.3333 8.66683 13.0349 8.66683 12.6667C8.66683 12.2985 8.36835 12 8.00016 12C7.63197 12 7.3335 12.2985 7.3335 12.6667C7.3335 13.0349 7.63197 13.3333 8.00016 13.3333Z" stroke="#25282B" stroke-width="1.5" stroke-linecap="round" stroke-linejoin="round"/>
</svg>
