<svg width="20" height="20" viewBox="0 0 20 20" fill="none" xmlns="http://www.w3.org/2000/svg">
<path d="M9.16667 15V17.5C9.16667 17.9167 8.83333 18.3333 8.33333 18.3333C7.83333 18.3333 7.5 17.9167 7.5 17.5V15H9.16667Z" stroke="#606060" stroke-miterlimit="10" stroke-linecap="round" stroke-linejoin="round"/>
<path d="M12.4999 15V17.5C12.4999 17.9167 12.1666 18.3333 11.6666 18.3333C11.1666 18.3333 10.8333 17.9167 10.8333 17.5V15H12.4999Z" stroke="#606060" stroke-miterlimit="10" stroke-linecap="round" stroke-linejoin="round"/>
<path d="M14.1666 9.16667V13.3333C14.1666 14.25 13.4166 15 12.4999 15H7.49992C6.58325 15 5.83325 14.25 5.83325 13.3333V9.16667C5.83325 8.25 6.58325 7.5 7.49992 7.5H12.4999C13.4166 7.5 14.1666 8.25 14.1666 9.16667Z" stroke="#606060" stroke-miterlimit="10" stroke-linecap="round" stroke-linejoin="round"/>
<path d="M4.16667 9.16683V12.5002C4.16667 13.0002 3.83333 13.3335 3.33333 13.3335C2.83333 13.3335 2.5 13.0002 2.5 12.5002V9.16683C2.5 8.66683 2.83333 8.3335 3.33333 8.3335C3.83333 8.3335 4.16667 8.66683 4.16667 9.16683Z" stroke="#606060" stroke-miterlimit="10" stroke-linecap="round" stroke-linejoin="round"/>
<path d="M17.4999 9.16683V12.5002C17.4999 13.0002 17.1666 13.3335 16.6666 13.3335C16.1666 13.3335 15.8333 13.0002 15.8333 12.5002V9.16683C15.8333 8.66683 16.1666 8.3335 16.6666 8.3335C17.1666 8.3335 17.4999 8.66683 17.4999 9.16683Z" stroke="#606060" stroke-miterlimit="10" stroke-linecap="round" stroke-linejoin="round"/>
<path d="M10.8334 15H9.16675" stroke="#606060" stroke-miterlimit="10" stroke-linecap="round" stroke-linejoin="round"/>
<path d="M8.00008 5.8335H12.0001C12.7501 5.8335 13.3334 5.2085 13.3334 4.40492C13.3334 2.44064 11.8334 0.833496 10.0001 0.833496C8.16675 0.833496 6.66675 2.44064 6.66675 4.40492C6.66675 5.2085 7.25008 5.8335 8.00008 5.8335Z" stroke="#606060" stroke-miterlimit="10" stroke-linecap="round" stroke-linejoin="round"/>
</svg>
