<svg width="20" height="20" viewBox="0 0 20 20" fill="none" xmlns="http://www.w3.org/2000/svg">
<path fill-rule="evenodd" clip-rule="evenodd" d="M12.8334 1.6665C13 2.58317 12.5834 3.49984 12.0834 4.1665C11.5834 4.83317 10.6667 5.4165 9.75004 5.33317C9.58337 4.4165 10 3.58317 10.5 2.9165C11.0834 2.24984 12 1.74984 12.8334 1.6665ZM15.5 16.1665C15.9167 15.4998 16.1667 15.0832 16.5 14.3332C13.9167 13.3332 13.5 9.6665 16.0834 8.33317C15.3334 7.33317 14.25 6.83317 13.1667 6.83317C12.4167 6.83317 11.9167 6.99984 11.4167 7.1665C11 7.33317 10.6667 7.4165 10.25 7.4165C9.75004 7.4165 9.4167 7.24984 8.9167 7.08317C8.4167 6.9165 7.9167 6.74984 7.33337 6.74984C6.1667 6.74984 4.9167 7.4165 4.1667 8.6665C3.08337 10.3332 3.25004 13.5832 5.00004 16.2498C5.75004 17.2498 6.58337 18.3332 7.6667 18.3332C8.1667 18.3332 8.4167 18.1665 8.75004 18.0832C9.1667 17.9165 9.58337 17.7498 10.25 17.7498C11 17.7498 11.3334 17.9165 11.75 18.0832C12.0834 18.2498 12.3334 18.3332 12.8334 18.3332C14 18.3332 14.8334 17.0832 15.5 16.1665Z" stroke="#606060" stroke-miterlimit="10" stroke-linecap="round" stroke-linejoin="round"/>
</svg>
