<svg width="400" height="400" viewBox="0 0 400 400" fill="none" xmlns="http://www.w3.org/2000/svg">
<path d="M227.967 78.4547C197.544 109.93 181.631 112.204 143.085 129.616C111.571 143.852 80.3664 171.521 69.7216 205.998C41.6792 296.822 166.322 308.18 225.174 293.352C266.61 282.913 283.187 258.871 293.679 218.987C297.76 203.475 298.95 186.697 305.672 171.935C312.894 156.075 327.682 148.353 335.043 134.428C370.726 66.9331 268.521 36.4995 227.967 78.4547Z" fill="#EC1944"/>
<path opacity="0.9" d="M227.967 78.4547C197.544 109.93 181.631 112.204 143.085 129.616C111.571 143.852 80.3664 171.521 69.7216 205.998C41.6792 296.822 166.322 308.18 225.174 293.352C266.61 282.913 283.187 258.871 293.679 218.987C297.76 203.475 298.95 186.697 305.672 171.935C312.894 156.075 327.682 148.353 335.043 134.428C370.726 66.9331 268.521 36.4995 227.967 78.4547Z" fill="white"/>
<path d="M200 342.048C285.666 342.048 355.111 337.993 355.111 332.99C355.111 327.987 285.666 323.932 200 323.932C114.334 323.932 44.8888 327.987 44.8888 332.99C44.8888 337.993 114.334 342.048 200 342.048Z" fill="#F5F5F5"/>
<path d="M41.841 90.8201C41.841 88.0577 44.101 85.7969 46.8642 85.7969H271.04C273.803 85.7969 276.063 88.0569 276.063 90.8201V106.989H41.841V90.8201Z" fill="#263238"/>
<path d="M82.4536 100.636C80.1144 100.636 78.2104 98.733 78.2104 96.3938C78.2104 94.0546 80.1136 92.1514 82.4536 92.1514C84.7928 92.1514 86.696 94.0546 86.696 96.3938C86.696 98.733 84.7928 100.636 82.4536 100.636ZM82.4536 93.0402C80.6048 93.0402 79.1 94.545 79.1 96.3938C79.1 98.2426 80.604 99.7474 82.4536 99.7474C84.3024 99.7474 85.8072 98.2426 85.8072 96.3938C85.8064 94.5442 84.3024 93.0402 82.4536 93.0402Z" fill="#F0F0F0"/>
<path d="M68.996 100.636C66.6568 100.636 64.7536 98.733 64.7536 96.3938C64.7536 94.0546 66.6568 92.1514 68.996 92.1514C71.3352 92.1514 73.2392 94.0546 73.2392 96.3938C73.2384 98.733 71.3352 100.636 68.996 100.636ZM68.996 93.0402C67.1472 93.0402 65.6424 94.545 65.6424 96.3938C65.6424 98.2426 67.1464 99.7474 68.996 99.7474C70.8456 99.7474 72.3496 98.2426 72.3496 96.3938C72.3488 94.5442 70.8448 93.0402 68.996 93.0402Z" fill="#F0F0F0"/>
<path d="M55.5376 100.636C53.1984 100.636 51.2944 98.733 51.2944 96.3938C51.2944 94.0546 53.1976 92.1514 55.5376 92.1514C57.8768 92.1514 59.78 94.0546 59.78 96.3938C59.7808 98.733 57.8776 100.636 55.5376 100.636ZM55.5376 93.0402C53.6888 93.0402 52.184 94.545 52.184 96.3938C52.184 98.2426 53.688 99.7474 55.5376 99.7474C57.3864 99.7474 58.8912 98.2426 58.8912 96.3938C58.8912 94.5442 57.3872 93.0402 55.5376 93.0402Z" fill="#F0F0F0"/>
<path d="M271.04 261.259H46.8632C44.1008 261.259 41.84 258.999 41.84 256.236V106.989H276.062V256.236C276.063 258.999 273.802 261.259 271.04 261.259Z" fill="#EC1944"/>
<path d="M274.641 111.285H43.2632V243.552H274.641V111.285Z" fill="white"/>
<path d="M145.783 140.49H57.6504C55.9672 140.49 54.6024 139.125 54.6024 137.442V125.672C54.6024 123.989 55.9672 122.624 57.6504 122.624H145.784C147.467 122.624 148.832 123.989 148.832 125.672V137.442C148.831 139.125 147.466 140.49 145.783 140.49Z" fill="#EC1944"/>
<path d="M260.254 123.423C261.494 123.423 262.502 124.432 262.502 125.672V137.441C262.502 138.681 261.493 139.689 260.254 139.689H172.121C170.881 139.689 169.872 138.681 169.872 137.441V125.672C169.872 124.432 170.881 123.423 172.121 123.423H260.254ZM260.254 122.623H172.121C170.438 122.623 169.072 123.988 169.072 125.672V137.441C169.072 139.125 170.437 140.489 172.121 140.489H260.254C261.937 140.489 263.302 139.125 263.302 137.441V125.672C263.302 123.988 261.938 122.623 260.254 122.623Z" fill="#EC1944"/>
<path d="M70.2656 148.49C78.4616 148.49 85.1296 155.158 85.1296 163.354C85.1296 171.55 78.4616 178.218 70.2656 178.218C62.0696 178.218 55.4016 171.55 55.4016 163.354C55.4016 155.158 62.0696 148.49 70.2656 148.49ZM70.2656 147.69C61.6144 147.69 54.6016 154.704 54.6016 163.354C54.6016 172.005 61.6144 179.018 70.2656 179.018C78.916 179.018 85.9296 172.006 85.9296 163.354C85.9296 154.704 78.9168 147.69 70.2656 147.69Z" fill="#EC1944"/>
<path opacity="0.4" d="M81.6304 169.512C79.4496 173.541 75.18 176.281 70.2648 176.281C65.3504 176.281 61.08 173.54 58.8992 169.512C62.1536 167.337 66.0592 166.068 70.2648 166.068C74.4704 166.068 78.376 167.337 81.6304 169.512Z" fill="#EC1944"/>
<path opacity="0.4" d="M70.2656 164.689C73.4459 164.689 76.024 162.111 76.024 158.93C76.024 155.75 73.4459 153.172 70.2656 153.172C67.0853 153.172 64.5072 155.75 64.5072 158.93C64.5072 162.111 67.0853 164.689 70.2656 164.689Z" fill="#EC1944"/>
<path opacity="0.4" d="M255.25 171.407H102.782C98.3344 171.407 94.7296 167.802 94.7296 163.355C94.7296 158.908 98.3344 155.303 102.782 155.303H255.25C259.698 155.303 263.302 158.908 263.302 163.355C263.302 167.802 259.697 171.407 255.25 171.407Z" fill="#EC1944"/>
<path d="M70.2656 191.156C78.4616 191.156 85.1296 197.824 85.1296 206.02C85.1296 214.216 78.4616 220.884 70.2656 220.884C62.0696 220.884 55.4016 214.216 55.4016 206.02C55.4016 197.824 62.0696 191.156 70.2656 191.156ZM70.2656 190.356C61.6144 190.356 54.6016 197.369 54.6016 206.02C54.6016 214.671 61.6144 221.684 70.2656 221.684C78.916 221.684 85.9296 214.672 85.9296 206.02C85.9296 197.369 78.9168 190.356 70.2656 190.356Z" fill="#EC1944"/>
<path opacity="0.4" d="M81.6304 212.177C79.4496 216.206 75.18 218.946 70.2648 218.946C65.3504 218.946 61.08 216.205 58.8992 212.177C62.1536 210.002 66.0592 208.733 70.2648 208.733C74.4704 208.733 78.376 210.003 81.6304 212.177Z" fill="#EC1944"/>
<path opacity="0.4" d="M70.2656 207.354C73.4459 207.354 76.024 204.776 76.024 201.595C76.024 198.415 73.4459 195.837 70.2656 195.837C67.0853 195.837 64.5072 198.415 64.5072 201.595C64.5072 204.776 67.0853 207.354 70.2656 207.354Z" fill="#EC1944"/>
<path opacity="0.4" d="M255.25 214.073H102.782C98.3344 214.073 94.7296 210.468 94.7296 206.021C94.7296 201.574 98.3344 197.969 102.782 197.969H255.25C259.698 197.969 263.302 201.574 263.302 206.021C263.302 210.468 259.697 214.073 255.25 214.073Z" fill="#EC1944"/>
<path opacity="0.1" d="M217.696 213.84C217.696 218.744 218.176 223.624 219.128 228.416C210.2 233.712 204.416 243.464 204.416 254.2C204.416 256.632 204.704 258.992 205.256 261.256H271.04C273.8 261.256 276.064 259 276.064 256.232V141.064C242.704 148.472 217.696 178.288 217.696 213.84Z" fill="black"/>
<path d="M339.3 264.051C365.289 238.061 365.289 195.923 339.3 169.934C313.31 143.944 271.172 143.944 245.183 169.934C219.193 195.923 219.193 238.061 245.183 264.051C271.172 290.04 313.31 290.04 339.3 264.051Z" fill="#EC1944"/>
<path d="M335.453 259.804C359.145 236.112 359.145 197.699 335.453 174.006C311.76 150.314 273.347 150.314 249.655 174.006C225.963 197.699 225.963 236.112 249.655 259.804C273.347 283.497 311.76 283.497 335.453 259.804Z" fill="white"/>
<path d="M272.09 176.199L268.218 181.158C268.218 181.158 264.818 183.739 263.53 185.944C262.025 187.435 260.646 188.959 259.286 190.564C257.755 192.386 256.302 194.29 254.937 196.333C253.602 198.403 252.298 200.538 251.319 203.206C250.847 204.556 250.393 206.018 250.352 207.998C250.342 208.986 250.467 210.147 250.957 211.398C251.437 212.648 252.386 213.917 253.494 214.757L254.345 215.401L255.617 215.642C258.179 216.126 260.727 216.366 263.234 216.389C263.289 216.39 264.19 216.305 264.243 216.305L263.226 206.183C262.366 206.215 260.53 206.351 259.686 206.333C259.716 206.177 259.749 206.018 259.788 205.856C260.195 204.154 260.97 202.179 261.874 200.264C262.769 198.325 263.8 196.379 264.874 194.438C265.815 192.73 266.827 191.008 267.815 189.329L272.603 186.307L275.418 181.321L272.09 176.199ZM259.6 207.801C259.584 207.742 259.576 207.66 259.57 207.569C259.604 207.636 259.63 207.701 259.641 207.753C259.697 207.943 259.636 207.955 259.6 207.801Z" fill="#7F3E3B"/>
<path d="M299.352 186.919C299.474 186.304 299.278 186.263 299.122 186.266C299 186.268 298.614 186.566 298.524 186.936C297.781 188.09 296.863 189.086 295.65 189.962C295.492 190.075 295.338 190.191 295.17 190.301C293.63 191.309 292.018 191.792 290.454 191.854C290.486 192.022 290.517 192.19 290.542 192.358C290.604 192.751 290.647 193.143 290.674 193.531C290.854 196.083 290.189 198.454 287.316 199.809C287.305 199.968 286.925 200.134 286.797 200.248C285.994 200.963 284.88 202.53 284.893 203.887C284.902 204.931 285.87 205.752 287.019 206.744L288.637 207.827L290.828 207.618C297.558 205.642 300.694 199.493 300.55 199.039C298.807 196.191 298.831 191.227 299.352 186.919Z" fill="#7F3E3B"/>
<path d="M313.899 201.496C313.899 201.496 313.448 201.413 312.678 201.29C311.084 201.035 303.945 199.421 300.499 199.109C300.498 199.112 300.497 199.113 300.495 199.115C299.685 200.813 297.075 204.973 290.345 206.949L288.68 207.344L287.113 206.511C285.964 205.519 285.375 204.487 285.366 203.443C285.354 202.085 286.308 200.949 287.11 200.235C287.171 200.181 287.215 200.118 287.249 200.05C287.234 199.857 287.233 199.732 287.252 199.713C286.75 199.777 280.37 200.747 279.829 200.833C271.524 202.15 262.174 205.734 262.174 205.734L262.241 206.309L263.397 216.389L263.834 220.202C263.834 220.202 267.041 219.844 271.234 219.104C270.084 229.298 269.866 244.065 273.359 263.05C277.041 262.981 287.017 262.783 287.017 262.794C296.822 262.61 307.111 262.417 310.743 262.349C310.841 260.753 310.666 257.44 310.493 252.912L310.279 245.924C310.15 239.748 310.177 232.34 310.73 224.381C310.818 223.129 310.92 221.862 311.035 220.585C311.037 220.586 311.038 220.588 311.039 220.589C315.888 225.835 320.745 230.843 320.745 230.843L323.036 228.633C325.973 227.213 328.286 224.682 330.303 221.629L332.996 219.033C332.998 219.033 320.458 202.598 313.899 201.496Z" fill="#EC1944"/>
<path opacity="0.3" d="M307.328 216.516C307.503 218.162 308.037 219.777 308.888 221.232L310.73 224.382C310.818 223.13 310.92 221.863 311.035 220.585C309.77 219.216 308.506 217.832 307.328 216.516Z" fill="black"/>
<path opacity="0.3" d="M311.04 220.59C311.038 220.588 311.038 220.587 311.036 220.585C310.921 221.862 310.818 223.13 310.731 224.382L310.733 224.384C310.819 223.133 310.925 221.865 311.04 220.59Z" fill="black"/>
<path d="M290.453 191.854C290.484 192.022 290.515 192.19 290.542 192.358C290.516 192.19 290.485 192.022 290.453 191.854Z" fill="#7F3E3B"/>
<path opacity="0.2" d="M290.674 193.531C290.646 193.143 290.603 192.751 290.542 192.357C290.602 192.751 290.65 193.143 290.674 193.531Z" fill="black"/>
<path d="M295.649 189.962C295.491 190.076 295.338 190.192 295.17 190.301C293.63 191.309 292.017 191.792 290.454 191.854C290.485 192.022 290.516 192.19 290.542 192.358C290.603 192.752 290.646 193.143 290.674 193.532C290.675 193.554 290.68 193.577 290.682 193.6C292.402 193.32 294.643 191.738 295.649 189.962Z" fill="#7F3E3B"/>
<path d="M304.629 200.325C304.485 199.678 303.99 199.131 303.303 198.968L301.641 198.572C301.204 198.467 300.773 198.662 300.549 199.038C300.533 199.066 300.509 199.086 300.495 199.115C299.685 200.813 297.075 204.974 290.345 206.95L289.822 207.074L288.68 207.344L287.113 206.511C285.964 205.519 285.375 204.487 285.366 203.443C285.354 202.086 286.308 200.95 287.11 200.235C287.171 200.182 287.306 200.006 287.34 199.938C287.412 199.754 287.398 199.662 287.269 199.582C285.508 198.31 281.548 200.271 281.391 200.612C281.222 200.775 281.054 200.954 280.89 201.153C280.085 202.123 279.406 203.519 279.611 205.393C280.067 209.554 283.518 211.522 283.664 211.604C283.7 211.624 283.739 211.634 283.778 211.634C283.822 211.634 283.866 211.621 283.905 211.597C283.978 211.55 284.02 211.467 284.014 211.382C284.006 211.262 283.859 208.487 286.975 206.972L288.378 207.717C282.358 232.41 286.442 261.998 286.554 262.799C286.85 262.794 287.018 262.792 287.018 262.794C287.018 262.782 287.027 262.775 287.026 262.764C286.982 262.465 282.781 232.614 288.845 207.789L290.314 207.441C292.018 209.522 291.21 212.61 291.201 212.641C291.178 212.728 291.206 212.822 291.274 212.881C291.318 212.918 291.373 212.938 291.429 212.938C291.461 212.938 291.493 212.932 291.523 212.919C291.843 212.779 299.409 209.461 302.054 206.302C303.626 204.426 304.323 202.439 304.631 201.104C304.692 200.839 304.684 200.575 304.629 200.325Z" fill="white"/>
<path opacity="0.2" d="M295.649 189.962C295.491 190.076 295.338 190.192 295.17 190.301C293.63 191.309 292.017 191.792 290.454 191.854C290.485 192.022 290.516 192.19 290.542 192.358C290.603 192.752 290.646 193.143 290.674 193.532C290.675 193.554 290.68 193.577 290.682 193.6C292.402 193.32 294.643 191.738 295.649 189.962Z" fill="black"/>
<path d="M284.008 171.297C284.813 169.86 285.788 168.559 286.944 167.517C286.396 167.105 285.934 166.64 285.587 166.118C284.327 166.709 283.137 168.384 282.519 172.125C282.359 173.092 282.36 173.98 282.453 174.804C282.695 174.1 282.97 173.405 283.28 172.729L284.008 171.297Z" fill="#263238"/>
<path d="M298.877 181.118C302.487 176.94 300.191 171.618 298.079 170.421C298.47 164.835 290.435 164.105 286.945 167.517C285.79 168.559 284.814 169.86 284.009 171.297L283.282 172.729C282.972 173.404 282.697 174.099 282.454 174.803C281.526 177.497 281.082 180.319 281.094 182.665C281.121 188.019 285.536 192.047 290.454 191.853H290.455C292.018 191.792 293.631 191.308 295.171 190.301C295.339 190.191 295.493 190.076 295.65 189.961C296.864 189.085 297.782 188.089 298.525 186.936C300.322 184.061 299.852 182.613 298.877 181.118Z" fill="#7F3E3B"/>
<path d="M282.842 172.253C282.728 172.395 282.751 172.604 282.894 172.718C282.957 172.769 283.032 172.793 283.107 172.791C283.17 172.79 283.228 172.765 283.282 172.73C283.309 172.711 283.338 172.694 283.359 172.668C284.293 171.506 285.494 171.566 285.546 171.569C285.723 171.58 285.886 171.442 285.898 171.261C285.91 171.079 285.774 170.922 285.592 170.908C285.549 170.905 284.828 170.874 284.009 171.297C283.621 171.497 283.214 171.79 282.842 172.253Z" fill="#263238"/>
<path d="M291.495 181.844C291.431 181.778 291.326 181.777 291.261 181.841C291.246 181.856 289.708 183.315 287.283 182.832C287.194 182.814 287.106 182.872 287.088 182.962C287.07 183.052 287.128 183.139 287.218 183.157C287.63 183.239 288.016 183.269 288.375 183.262C290.288 183.227 291.435 182.133 291.491 182.077C291.558 182.014 291.559 181.909 291.495 181.844Z" fill="#263238"/>
<path d="M287.181 176.129C287.181 176.129 285.178 179.047 283.433 180.299C284.198 181.401 285.958 181.318 285.958 181.318L287.181 176.129Z" fill="#630F0F"/>
<path d="M284.37 176.324C284.731 176.396 285.129 176.008 285.258 175.46C285.388 174.91 285.199 174.407 284.838 174.335C284.477 174.263 284.079 174.65 283.95 175.199C283.82 175.748 284.008 176.252 284.37 176.324Z" fill="#263238"/>
<path d="M290.62 177.569C290.982 177.641 291.379 177.253 291.509 176.705C291.638 176.156 291.45 175.653 291.089 175.58C290.727 175.508 290.33 175.895 290.2 176.444C290.07 176.993 290.259 177.497 290.62 177.569Z" fill="#263238"/>
<path d="M298.81 170.4C298.59 170.412 298.345 170.42 298.079 170.42C297.696 171.308 297.37 172.445 297.13 173.897C296.601 177.098 297.684 179.513 298.877 181.118C300.518 183.905 302.618 183.826 304.438 181.704C307.369 178.891 310.19 173.283 304.362 168.879C303.447 169.662 301.726 170.229 298.81 170.4Z" fill="#263238"/>
<path d="M302.886 180.057C301.564 179.515 300.067 180.151 298.877 181.118C298.198 181.668 297.618 182.324 297.228 182.934C296.096 184.702 296.498 186.761 298.523 186.936C298.636 186.946 298.75 186.953 298.873 186.951C299.03 186.948 299.19 186.935 299.352 186.919C300.786 186.78 302.377 186.139 303.571 184.918C304.478 183.991 304.771 182.742 304.438 181.703C304.213 181.002 303.71 180.395 302.886 180.057Z" fill="#7F3E3B"/>
<path d="M286.944 167.517C289.87 169.72 295.198 170.433 298.078 170.421C298.344 170.42 298.59 170.413 298.81 170.4C301.726 170.23 303.446 169.663 304.362 168.879C307.743 165.985 300.035 160.107 300.035 160.107C300.035 160.107 300.895 162.217 299.102 162.799C297.31 163.38 284.675 158.681 284.89 164.014C284.922 164.803 285.175 165.5 285.587 166.119C285.934 166.64 286.397 167.104 286.944 167.517Z" fill="#263238"/>
<path d="M273.36 263.051C273.36 263.051 273.144 264.917 272.809 268.062C278.913 270.126 285.444 271.261 292.244 271.261C298.658 271.261 304.834 270.259 310.637 268.415C310.723 264.618 310.775 262.349 310.775 262.349L287.017 262.795L286.554 262.804L273.36 263.051Z" fill="#263238"/>
<path d="M335.216 230.835C335.151 230.166 334.99 229.482 334.754 228.839C334.631 228.523 334.502 228.2 334.346 227.914L334.11 227.477L333.981 227.259C332.845 225.288 331.605 223.426 330.305 221.628L323.038 228.633C324.005 229.83 324.936 231.037 325.802 232.266C325.682 232.582 325.475 232.997 325.187 233.422C324.237 234.83 322.792 236.392 321.226 237.83C318.25 240.601 314.797 243.242 311.389 245.773L310.28 245.923L305.814 246.53L301.425 249.494L304.31 255.37L307.941 253.51C307.941 253.51 309.158 253.37 310.494 252.911C311.725 252.489 313.056 251.797 313.637 250.686C315.805 249.838 317.831 248.89 319.875 247.838C322.018 246.726 324.12 245.498 326.189 244.091C327.221 243.382 328.237 242.618 329.246 241.774C330.257 240.933 331.254 240.002 332.211 238.872C333.156 237.724 334.139 236.418 334.818 234.418C335.148 233.423 335.352 232.181 335.216 230.835ZM325.866 232.094C325.862 232.054 325.85 232.01 325.85 231.974C325.85 231.781 325.918 231.712 325.918 231.826C325.921 231.886 325.902 231.98 325.866 232.094Z" fill="#7F3E3B"/>
<path d="M256.063 254.471C258.005 242.499 249.876 231.219 237.904 229.276C225.932 227.333 214.652 235.463 212.709 247.435C210.766 259.406 218.896 270.686 230.868 272.629C242.84 274.572 254.12 266.442 256.063 254.471Z" fill="#263238"/>
<path d="M246.452 248.895H236.434V238.877C236.434 237.747 235.51 236.822 234.378 236.822C233.248 236.822 232.323 237.747 232.323 238.877V248.895H222.306C221.175 248.895 220.25 249.82 220.25 250.951C220.25 252.081 221.174 253.007 222.306 253.007H232.323V263.025C232.323 264.155 233.248 265.08 234.378 265.08C235.509 265.08 236.434 264.155 236.434 263.025V253.007H246.452C247.582 253.007 248.508 252.082 248.508 250.951C248.507 249.82 247.582 248.895 246.452 248.895Z" fill="white"/>
<path d="M291.819 173.41C291.882 173.418 293.048 173.6 293.639 174.894C293.696 175.018 293.819 175.09 293.946 175.087C293.99 175.086 294.035 175.077 294.078 175.058C294.244 174.982 294.318 174.785 294.242 174.618C293.49 172.973 291.968 172.762 291.904 172.754C291.724 172.73 291.557 172.858 291.534 173.04C291.51 173.22 291.638 173.386 291.819 173.41Z" fill="#263238"/>
</svg>
