<svg width="16" height="20" viewBox="0 0 16 20" fill="none" xmlns="http://www.w3.org/2000/svg">
<path d="M4 8.33366V6.66699C4 3.90866 4.66667 1.66699 8 1.66699C11.3333 1.66699 12 3.90866 12 6.66699V8.33366" stroke="black" stroke-width="1.5" stroke-linecap="round" stroke-linejoin="round"/>
<path d="M7.99992 15.4167C8.92039 15.4167 9.66658 14.4839 9.66658 13.3333C9.66658 12.1827 8.92039 11.25 7.99992 11.25C7.07944 11.25 6.33325 12.1827 6.33325 13.3333C6.33325 14.4839 7.07944 15.4167 7.99992 15.4167Z" stroke="black" stroke-width="1.5" stroke-linecap="round" stroke-linejoin="round"/>
<path d="M11.3333 18.333H4.66658C1.99992 18.333 1.33325 17.4997 1.33325 14.1663V12.4997C1.33325 9.16634 1.99992 8.33301 4.66658 8.33301H11.3333C13.9999 8.33301 14.6666 9.16634 14.6666 12.4997V14.1663C14.6666 17.4997 13.9999 18.333 11.3333 18.333Z" stroke="black" stroke-width="1.5" stroke-linecap="round" stroke-linejoin="round"/>
</svg>
