<svg width="20" height="20" viewBox="0 0 20 20" fill="none" xmlns="http://www.w3.org/2000/svg">
<path d="M17.5 5.83366V14.167C17.5 16.667 16.25 18.3337 13.3333 18.3337H6.66667C3.75 18.3337 2.5 16.667 2.5 14.167V5.83366C2.5 3.33366 3.75 1.66699 6.66667 1.66699H13.3333C16.25 1.66699 17.5 3.33366 17.5 5.83366Z" stroke="#EC1944" stroke-miterlimit="10" stroke-linecap="round" stroke-linejoin="round"/>
<path d="M12.9166 1.66699V8.21698C12.9166 8.58365 12.4832 8.76698 12.2166 8.52531L10.2833 6.74201C10.1249 6.59201 9.8749 6.59201 9.71656 6.74201L7.78327 8.52531C7.51661 8.76698 7.08325 8.58365 7.08325 8.21698V1.66699H12.9166Z" stroke="#EC1944" stroke-miterlimit="10" stroke-linecap="round" stroke-linejoin="round"/>
<path d="M11.0417 11.667H14.5834" stroke="#EC1944" stroke-miterlimit="10" stroke-linecap="round" stroke-linejoin="round"/>
<path d="M7.5 15H14.5833" stroke="#EC1944" stroke-miterlimit="10" stroke-linecap="round" stroke-linejoin="round"/>
</svg>
